<svg width="183" height="122" viewBox="0 0 183 122" fill="none" xmlns="http://www.w3.org/2000/svg">
<path d="M146.249 49L142 53.2358L144.363 53.1559L176.57 85.5841L179.959 87.4081L178.375 83.8936L146.322 51.095L146.249 49Z" fill="#B8B8B8"/>
<path d="M80.8948 2.82365L118.714 37.9623L128 28.8639L103.649 5.33354C103.161 4.86194 100.019 8.76318 98.6276 8.78467C96.1027 10.1904 89.09 4.11933 83.2487 0C81.5022 0.442258 80.968 1.12681 80.8948 2.82365Z" fill="#7A7A7A"/>
<path d="M80.9733 2.82363C80.6815 3.32038 80.5773 3.81714 80.581 4.31389L116.282 38.9035L118.793 37.8839L80.9733 2.82363Z" fill="#2D2D2D"/>
<path d="M95.1941 17.5372L0 111.795C3.30028 118.765 6.98362 121.524 10.8745 122L104.751 26.606L95.1941 17.5372Z" fill="#BE8242"/>
<path d="M40.8349 71.1971L0 111.795C3.30028 118.765 6.98362 121.524 10.8745 122L54.3591 77.8391L40.8349 71.1971Z" fill="#1282A2"/>
</svg>
