<svg width="139" height="64" viewBox="0 0 139 64" fill="none" xmlns="http://www.w3.org/2000/svg">
<path d="M138.86 54.7742L139 63.3705C137.808 61.633 136.871 59.2951 134.909 59.3645V50.1005C135.347 52.5371 137.405 54.3086 138.86 54.7742Z" fill="#B8B8B8"/>
<path d="M0 31.3047C0 48.5938 14.1168 62.6093 31.5308 62.6093C39.712 62.6093 53.5864 63.8415 59.1901 58.7683C65.5141 53.0432 63.0615 40.4711 63.0615 31.3047C63.0615 14.0156 48.9447 0 31.5308 0C14.1168 0 0 14.0156 0 31.3047Z" fill="#12728D"/>
<path d="M60.7715 50.9383L134.874 50.9383C135.226 53.9364 136.961 54.0395 138.888 54.9612C137.984 55.3064 137.22 55.7037 135.749 55.8378L60.1375 56.4464" fill="#D3BF10"/>
<path d="M60.7715 49.9368L134.874 49.9368C135.226 52.9349 136.989 54.0116 138.916 54.9334L60.1375 55.4449" fill="#EED918"/>
<path d="M135.508 52.2187C130.4 53.095 127.203 52.6025 124.968 53.7138C125.073 53.6613 125.179 53.6088 125.285 53.5564C125.86 54.5536 132.099 54.1889 137.41 54.1859L135.508 52.2187Z" fill="#B8B8B8"/>
<path d="M0.634048 33.2696C0.634048 50.1704 14.4338 63.8713 31.4568 63.8713C39.4543 63.8713 53.0171 65.0758 58.495 60.1165C64.677 54.5199 62.2795 42.2302 62.2795 33.2696C62.2795 16.3687 48.4797 2.66786 31.4568 2.66786C14.4338 2.66786 0.634048 16.3687 0.634048 33.2696Z" fill="#1282A2"/>
</svg>
