<svg width="41" height="40" viewBox="0 0 41 40" fill="none" xmlns="http://www.w3.org/2000/svg">
<path d="M11.4006 12.1774C11.4006 9.59413 13.4948 7.5 16.078 7.5H24.1038C26.6871 7.5 28.7812 9.59413 28.7812 12.1774C28.7812 13.8131 27.9416 15.2527 26.6697 16.0887C27.9416 16.9248 28.7812 18.3644 28.7812 20.0001C28.7812 22.5834 26.6871 24.6775 24.1038 24.6775H24.0022C22.7912 24.6775 21.6876 24.2172 20.857 23.4621V27.7718C20.857 30.3895 18.7081 32.5 16.1032 32.5C13.5264 32.5 11.4006 30.4123 11.4006 27.8226C11.4006 26.187 12.2402 24.7474 13.5119 23.9114C12.2402 23.0753 11.4006 21.6357 11.4006 20.0001C11.4006 18.3644 12.2403 16.9248 13.5121 16.0887C12.2403 15.2527 11.4006 13.8131 11.4006 12.1774ZM19.3249 16.8548H16.078C14.3409 16.8548 12.9328 18.263 12.9328 20.0001C12.9328 21.7305 14.3301 23.1345 16.0579 23.1453C16.0646 23.1453 16.0713 23.1453 16.078 23.1453H19.3249V16.8548ZM20.857 20.0001C20.857 21.7372 22.2651 23.1454 24.0022 23.1454H24.1038C25.8409 23.1454 27.2491 21.7372 27.2491 20.0001C27.2491 18.263 25.8409 16.8548 24.1038 16.8548H24.0022C22.2651 16.8548 20.857 18.263 20.857 20.0001ZM16.078 24.6775C16.0713 24.6775 16.0646 24.6774 16.0579 24.6774C14.3301 24.6882 12.9328 26.0922 12.9328 27.8226C12.9328 29.5533 14.3597 30.9679 16.1032 30.9679C17.8748 30.9679 19.3249 29.5306 19.3249 27.7718V24.6775H16.078ZM16.078 9.03212C14.3409 9.03212 12.9328 10.4403 12.9328 12.1774C12.9328 13.9145 14.3409 15.3226 16.078 15.3226H19.3249V9.03212H16.078ZM20.857 15.3226H24.1038C25.8409 15.3226 27.2491 13.9145 27.2491 12.1774C27.2491 10.4403 25.8409 9.03212 24.1038 9.03212H20.857V15.3226Z" fill="#7A7A7A"/>
</svg>
