<svg width="41" height="40" viewBox="0 0 41 40" fill="none" xmlns="http://www.w3.org/2000/svg">
<path d="M32.5741 18.8867L21.6615 7.97136C21.3594 7.66954 20.9499 7.5 20.5228 7.5C20.0958 7.5 19.6862 7.66954 19.3841 7.97136L17.1151 10.2387L19.9902 13.1137C21.5002 12.6037 22.9299 14.0496 22.4115 15.5513L25.1828 18.3225C27.093 17.664 28.5969 20.0525 27.1622 21.4861C25.6839 22.9644 23.2441 21.3259 24.0371 19.4024L21.4506 16.8192V23.6189C22.8624 24.3187 22.6928 25.9544 21.9573 26.6882C21.5979 27.0473 21.1107 27.2491 20.6026 27.2491C20.0946 27.2491 19.6073 27.0473 19.248 26.6882C18.2675 25.706 18.6302 24.0704 19.8758 23.5631V16.6992C18.715 16.2243 18.503 14.9838 18.8356 14.188L16.0013 11.3503L8.51676 18.8359C8.2148 19.138 8.04517 19.5476 8.04517 19.9746C8.04517 20.4017 8.2148 20.8113 8.51676 21.1133L19.4327 32.0287C19.7347 32.3305 20.1441 32.5 20.5711 32.5C20.998 32.5 21.4075 32.3305 21.7095 32.0287L32.5741 21.1641C32.876 20.8621 33.0457 20.4525 33.0457 20.0254C33.0457 19.5983 32.876 19.1887 32.5741 18.8867Z" fill="#7A7A7A"/>
</svg>
