<svg width="41" height="40" viewBox="0 0 41 40" fill="none" xmlns="http://www.w3.org/2000/svg">
<path d="M19.4436 32.1852C19.1621 32.0072 18.991 31.766 18.896 31.4133C18.7317 30.803 18.4296 30.5651 17.4854 30.3021C16.4073 30.0018 16.0788 29.8525 15.9446 29.6018C15.7253 29.192 15.8122 28.8898 16.3137 28.3171C16.5844 28.008 16.8346 27.6688 16.8696 27.5632C17.0083 27.1453 16.112 26.6765 13.9338 26.0277C13.4939 25.8967 12.6876 25.5694 12.142 25.3005C11.2339 24.8528 11.1501 24.7791 11.1501 24.4275C11.1501 24.0785 11.2402 23.9966 12.1402 23.5271C12.6847 23.243 13.203 22.9367 13.292 22.8465C13.5924 22.542 12.998 22.2803 10.0051 21.3993C8.12918 20.8471 7.5238 19.8251 8.37971 18.6554C8.71832 18.1927 14.7832 11.9245 17.599 9.12707C18.8964 7.83821 19.3354 7.5975 20.3891 7.5975C21.5828 7.5975 21.8592 7.79863 24.9243 10.8977C30.683 16.7203 32.5548 18.6769 32.7738 19.1026C33.2824 20.0916 32.9414 20.9476 31.7165 21.7561C30.9464 22.2645 30.1363 22.6026 27.4284 23.546C26.0072 24.0412 25.3503 24.4448 25.5581 24.6952C25.6309 24.7829 26.0895 25.0917 26.5772 25.3815C27.6772 26.035 27.8256 26.2725 27.5355 26.9158C27.3216 27.3904 26.4549 28.0747 26.0667 28.0756C25.6195 28.0766 23.9499 28.8408 23.4552 29.2708L22.9247 29.732L23.2082 29.9594C23.3641 30.0845 23.6165 30.2758 23.7691 30.3844C24.1495 30.6552 24.0089 31.0305 23.3684 31.4544C22.5845 31.9731 21.6031 32.3124 20.687 32.3813C19.9992 32.433 19.7813 32.3986 19.4436 32.1852ZM20.4058 24.0122C20.4366 23.7955 20.3973 23.7438 20.2459 23.8019C20.1036 23.8565 20.0451 23.8023 20.0451 23.616C20.0451 23.379 20.0069 23.3663 19.6587 23.4877C19.3206 23.6055 19.2145 23.5782 18.8093 23.2692C18.4255 22.9765 18.3054 22.9415 18.1078 23.0649C17.9147 23.1855 17.8693 23.1771 17.8693 23.0208C17.8693 22.8638 17.684 22.831 16.8774 22.8452C16.3319 22.8548 16.016 22.8877 16.1754 22.9183C16.3348 22.949 16.4351 23.0229 16.3982 23.0826C16.3613 23.1422 16.5188 23.2464 16.7483 23.314C17.6274 23.5731 18.2537 23.7325 18.3335 23.7174C18.3793 23.7088 18.4519 23.7556 18.4949 23.8215C18.6149 24.005 19.685 24.352 20.0451 24.3243C20.2697 24.3069 20.3772 24.2139 20.4058 24.0122ZM28.9803 22.6414C29.3544 22.5183 29.638 22.3952 29.6105 22.3676C29.5455 22.3027 27.9801 22.8304 27.9801 22.9172C27.9801 22.9534 28.0521 22.9565 28.1401 22.9241C28.2281 22.8916 28.6062 22.7644 28.9803 22.6414ZM9.88241 19.0864C10.0542 18.885 10.0634 18.8491 9.91364 18.9646C9.78825 19.0613 9.67044 19.079 9.6264 19.0078C9.55391 18.8905 9.90097 18.671 10.0942 18.7119C10.147 18.7231 10.1902 18.6441 10.1902 18.5364C10.1902 18.3799 10.1136 18.3972 9.80892 18.6225C9.53228 18.827 9.46349 18.9476 9.55829 19.0618C9.64946 19.1717 9.63899 19.2393 9.52363 19.2856C9.4327 19.3221 9.42137 19.3565 9.49845 19.362C9.57553 19.3676 9.74831 19.2435 9.88241 19.0864ZM10.4935 18.0653C10.4554 18.0036 10.5011 17.8582 10.5951 17.7421C10.7157 17.5934 10.7191 17.5594 10.6068 17.6269C10.3344 17.7905 10.1774 18.1776 10.3835 18.1776C10.4822 18.1776 10.5317 18.1271 10.4935 18.0653ZM11.1274 17.7592C11.0679 17.6043 11.0278 17.6111 10.8903 17.7992C10.6881 18.0758 10.787 18.2874 11.0259 18.0892C11.121 18.0102 11.1667 17.8617 11.1274 17.7592ZM11.2141 17.3244C11.2141 17.254 11.1887 17.1964 11.1577 17.1964C11.1266 17.1964 11.0656 17.254 11.0221 17.3244C10.9786 17.3948 11.004 17.4524 11.0786 17.4524C11.1531 17.4524 11.2141 17.3948 11.2141 17.3244ZM11.598 16.9404C11.598 16.87 11.5405 16.8124 11.4701 16.8124C11.3997 16.8124 11.3421 16.87 11.3421 16.9404C11.3421 17.0108 11.3997 17.0684 11.4701 17.0684C11.5405 17.0684 11.598 17.0108 11.598 16.9404ZM11.9983 16.8444C12.1575 16.6414 12.153 16.6369 11.95 16.7961C11.8268 16.8927 11.726 16.9935 11.726 17.0201C11.726 17.1254 11.8311 17.0576 11.9983 16.8444ZM12.0371 16.313C12.0035 16.2793 11.8765 16.3555 11.755 16.4824C11.5439 16.7028 11.5466 16.7055 11.8162 16.5436C11.9714 16.4504 12.0708 16.3466 12.0371 16.313ZM12.6991 15.7931C12.6919 15.685 12.7744 15.6025 12.8825 15.6098C12.9932 15.6172 13.079 15.5195 13.079 15.3858C13.079 15.2554 13.0738 15.1486 13.0675 15.1486C13.0613 15.1486 12.8727 15.3379 12.6485 15.5692C12.3129 15.9154 12.2825 15.9897 12.4766 15.9897C12.609 15.9897 12.7065 15.9035 12.6991 15.7931ZM20.7237 14.7244C21.3007 14.3504 21.8432 14.0025 21.9291 13.9513C22.015 13.9002 22.2569 13.947 22.4667 14.0555C22.9317 14.296 22.9887 14.2991 22.9887 14.0838C22.9887 13.8286 23.5968 13.3377 23.6814 13.5246C23.7192 13.6083 23.7458 13.5328 23.7405 13.3568C23.7352 13.1808 23.773 12.9043 23.8244 12.7422L23.9179 12.4476L24.2212 12.7326C24.6076 13.0956 24.622 12.8231 24.2366 12.4425L23.9486 12.1582L24.3034 12.3783C24.5379 12.5239 24.7263 12.5603 24.8593 12.4859C25.0257 12.3928 24.9329 12.232 24.3206 11.5532C22.8829 9.95927 21.7684 8.85622 21.3987 8.66122C20.9179 8.4076 19.9391 8.40796 19.4593 8.6617C19.111 8.84609 15.7485 12.1807 14.3629 13.7159C13.853 14.2809 13.7639 14.4516 13.8338 14.7302C13.9083 15.0268 13.8944 15.0456 13.7124 14.8946C13.5511 14.7607 13.4738 14.7575 13.3524 14.8799C13.2314 15.0018 13.2436 15.0182 13.4089 14.9553C13.525 14.9111 13.6489 14.9221 13.6844 14.9797C13.7198 15.0373 14.6063 15.0673 15.6543 15.0463L17.5598 15.0082L18.1202 13.7665C18.4284 13.0835 18.7166 12.4819 18.7606 12.4295C18.8046 12.3771 19.0108 13.0245 19.2189 13.8681C19.4269 14.7118 19.6146 15.4026 19.6359 15.4033C19.6571 15.4038 20.1467 15.0985 20.7237 14.7244ZM24.5245 12.333C24.5245 12.2626 24.5821 12.205 24.6525 12.205C24.7229 12.205 24.7805 12.2626 24.7805 12.333C24.7805 12.4033 24.7229 12.4609 24.6525 12.4609C24.5821 12.4609 24.5245 12.4033 24.5245 12.333ZM13.3377 29.1632C12.7085 28.534 13.1088 27.8158 14.2316 27.5597C14.7485 27.4418 15.6153 27.589 15.7574 27.8189C15.7985 27.8853 15.7484 28.0997 15.6462 28.2953C15.3345 28.8922 14.7703 29.3359 14.2088 29.4257C13.7499 29.499 13.6406 29.4661 13.3377 29.1632ZM14.6057 27.8191C14.6504 27.7469 14.5455 27.6912 14.3648 27.6912C14.1889 27.6912 14.0093 27.7488 13.9658 27.8191C13.9211 27.8914 14.0259 27.9471 14.2066 27.9471C14.3826 27.9471 14.5622 27.8895 14.6057 27.8191ZM28.3934 29.0109C27.9903 28.6703 27.915 28.1839 28.2092 27.8206L28.454 27.5183L28.953 27.7768C29.537 28.0793 29.8018 28.6142 29.5094 28.9006C29.1867 29.2165 28.6944 29.2652 28.3934 29.0109ZM28.748 27.9471C28.748 27.8767 28.6617 27.8191 28.5561 27.8191C28.4505 27.8191 28.3641 27.8767 28.3641 27.9471C28.3641 28.0175 28.4505 28.0751 28.5561 28.0751C28.6617 28.0751 28.748 28.0175 28.748 27.9471ZM29.292 26.9558C28.8245 26.7232 28.7882 26.5936 29.0758 26.1831C29.3775 25.7522 29.9423 25.5154 30.6678 25.5154C31.4419 25.5154 32.041 25.7916 32.2055 26.2244C32.3592 26.6286 32.2661 26.8537 31.8706 27.0339C31.3957 27.2503 29.7857 27.2016 29.292 26.9558ZM30.6678 25.7714C30.4163 25.6088 30.0279 25.6088 30.0279 25.7714C30.0279 25.8418 30.2151 25.8985 30.4438 25.8974C30.7595 25.896 30.8135 25.8655 30.6678 25.7714Z" fill="#7A7A7A"/>
</svg>
