<svg width="41" height="40" viewBox="0 0 41 40" fill="none" xmlns="http://www.w3.org/2000/svg">
<path d="M8.31812 7.5V32.5H33.3181V7.5H8.31812ZM21.923 26.9978C21.923 29.4308 20.4945 30.5413 18.413 30.5413C16.5324 30.5413 15.4442 29.5703 14.8862 28.3929L16.8003 27.2377C17.1686 27.8906 17.5034 28.4431 18.3125 28.4431C19.0826 28.4431 19.5737 28.1417 19.5737 26.9643V18.9788H21.923V26.9978ZM27.4811 30.5413C25.2991 30.5413 23.8873 29.5033 23.2009 28.1417L25.115 27.0368C25.6172 27.8571 26.2757 28.4654 27.4308 28.4654C28.4018 28.4654 29.0268 27.9799 29.0268 27.3047C29.0268 26.5011 28.3907 26.2165 27.3137 25.7422L26.7277 25.4911C25.0313 24.7712 23.9096 23.8616 23.9096 21.9475C23.9096 20.1842 25.2545 18.8449 27.3471 18.8449C28.8427 18.8449 29.9141 19.3638 30.6842 20.7254L28.8538 21.8973C28.452 21.1775 28.0168 20.8929 27.3416 20.8929C26.6552 20.8929 26.2199 21.3281 26.2199 21.8973C26.2199 22.6004 26.6552 22.885 27.6652 23.3259L28.2512 23.577C30.2489 24.4308 31.3706 25.3069 31.3706 27.2712C31.3706 29.3806 29.7076 30.5413 27.4811 30.5413Z" fill="#7A7A7A"/>
</svg>
