<svg width="41" height="40" viewBox="0 0 41 40" fill="none" xmlns="http://www.w3.org/2000/svg">
<path d="M19.454 7.50673C19.4003 7.51161 19.2292 7.52872 19.0752 7.54094C15.5244 7.86103 12.1984 9.77668 10.0919 12.721C8.91884 14.3581 8.1686 16.2151 7.88512 18.1821C7.78492 18.8687 7.77271 19.0715 7.77271 20.0024C7.77271 20.9334 7.78492 21.1362 7.88512 21.8228C8.56449 26.5166 11.9052 30.4603 16.436 31.9215C17.2473 32.183 18.1026 32.3613 19.0752 32.4688C19.454 32.5104 21.0914 32.5104 21.4702 32.4688C23.149 32.2831 24.5713 31.8678 25.9741 31.1518C26.1891 31.0419 26.2307 31.0126 26.2013 30.9881C26.1818 30.9735 25.2654 29.7444 24.1657 28.2588L22.1666 25.5588L19.6618 21.8521C18.2835 19.8143 17.1495 18.1479 17.1398 18.1479C17.13 18.1454 17.1202 19.7923 17.1153 21.8033C17.108 25.3242 17.1055 25.466 17.0616 25.549C16.998 25.6688 16.9491 25.7176 16.8465 25.7714C16.7683 25.8105 16.6999 25.8178 16.3309 25.8178H15.9081L15.7957 25.747C15.7224 25.7005 15.6686 25.6394 15.6319 25.5686L15.5806 25.4586L15.5855 20.5596L15.5928 15.658L15.6686 15.5627C15.7077 15.5114 15.7908 15.4454 15.8494 15.4137C15.9496 15.3648 15.9887 15.3599 16.4115 15.3599C16.91 15.3599 16.9931 15.3795 17.1227 15.5212C17.1593 15.5603 18.5156 17.603 20.1383 20.0635C21.761 22.5241 23.9799 25.8838 25.0699 27.5331L27.0493 30.5312L27.1495 30.4652C28.0366 29.8886 28.9751 29.0676 29.718 28.2124C31.2991 26.3969 32.3182 24.1832 32.6603 21.8228C32.7605 21.1362 32.7727 20.9334 32.7727 20.0024C32.7727 19.0715 32.7605 18.8687 32.6603 18.1821C31.9809 13.4883 28.6403 9.54455 24.1095 8.08338C23.3103 7.82437 22.4599 7.646 21.5068 7.53849C21.2722 7.51406 19.6569 7.48718 19.454 7.50673ZM24.5713 15.0667C24.6886 15.1254 24.7839 15.2378 24.8182 15.355C24.8377 15.4186 24.8426 16.7771 24.8377 19.8387L24.8304 24.232L24.0557 23.0445L23.2786 21.857V18.6634C23.2786 16.5987 23.2883 15.4381 23.303 15.3819C23.3421 15.2451 23.4276 15.1376 23.5449 15.074C23.6451 15.0227 23.6818 15.0178 24.0655 15.0178C24.4272 15.0178 24.4907 15.0227 24.5713 15.0667Z" fill="#7A7A7A"/>
</svg>
