<svg width="41" height="40" viewBox="0 0 41 40" fill="none" xmlns="http://www.w3.org/2000/svg">
<path d="M20.2812 29.1875C20.1828 29.1875 20.0843 29.1594 19.9953 29.1125L19.0952 28.5781C18.9593 28.5031 19.0249 28.475 19.0718 28.4609C19.2499 28.4 19.2874 28.3859 19.4796 28.2734C19.4984 28.264 19.5265 28.2687 19.5452 28.2781L20.239 28.6906C20.2625 28.7047 20.3 28.7047 20.3234 28.6906L23.0329 27.1249C23.0563 27.1109 23.0751 27.0827 23.0751 27.0499V23.9232C23.0751 23.8904 23.061 23.8623 23.0329 23.8482L20.3234 22.2872C20.3 22.2732 20.2671 22.2732 20.239 22.2872L17.5295 23.8482C17.5014 23.8623 17.4874 23.8951 17.4874 23.9232V27.0499C17.4874 27.078 17.5061 27.1062 17.5295 27.1202L18.2702 27.5468C18.6733 27.7484 18.9218 27.5093 18.9218 27.2749V24.1858C18.9218 24.1436 18.9546 24.1061 19.0015 24.1061H19.3437C19.3859 24.1061 19.4234 24.1389 19.4234 24.1858V27.2749C19.4234 27.814 19.1327 28.1187 18.6218 28.1187C18.4671 28.1187 18.3405 28.1187 17.9983 27.95L17.2858 27.5421C17.1123 27.439 16.9998 27.2515 16.9998 27.0499V23.9232C16.9998 23.7217 17.1077 23.5295 17.2858 23.431L19.9953 21.8654C20.1687 21.7669 20.3937 21.7669 20.5625 21.8654L23.2719 23.431C23.4454 23.5342 23.5579 23.7217 23.5579 23.9232V27.0499C23.5579 27.2515 23.4501 27.4437 23.2719 27.5421L20.5625 29.1078C20.4828 29.1594 20.3843 29.1875 20.2812 29.1875ZM22.4704 26.103C22.4704 25.5171 22.0766 25.3624 21.2422 25.2499C20.3984 25.1373 20.314 25.0811 20.314 24.8842C20.314 24.7201 20.3843 24.5045 21.0078 24.5045C21.5656 24.5045 21.7719 24.6264 21.8563 25.0014C21.8656 25.0389 21.8938 25.0623 21.9313 25.0623H22.2829C22.3063 25.0623 22.325 25.053 22.3391 25.0389C22.3532 25.0202 22.3625 25.0014 22.3579 24.978C22.3016 24.3311 21.875 24.0311 21.0078 24.0311C20.2343 24.0311 19.7749 24.3592 19.7749 24.903C19.7749 25.4983 20.2343 25.6577 20.975 25.7327C21.861 25.8217 21.9313 25.9483 21.9313 26.1218C21.9313 26.4265 21.6875 26.553 21.1156 26.553C20.3984 26.553 20.239 26.3749 20.1875 26.0186C20.1828 25.9811 20.15 25.953 20.1078 25.953H19.7562C19.714 25.953 19.6765 25.9858 19.6765 26.0327C19.6765 26.4874 19.9249 27.0312 21.1109 27.0312C21.9782 27.0312 22.4704 26.6937 22.4704 26.103ZM25.0251 23.7545C25.0251 24.0404 24.7908 24.2748 24.5048 24.2748C24.2189 24.2748 23.9845 24.0404 23.9845 23.7545C23.9845 23.4592 24.2282 23.2342 24.5048 23.2342C24.7861 23.2295 25.0251 23.4592 25.0251 23.7545ZM24.9408 23.7545C24.9408 23.5107 24.7439 23.3185 24.5001 23.3185C24.261 23.3185 24.0642 23.5107 24.0642 23.7545C24.0642 23.9982 24.261 24.1951 24.5001 24.1951C24.7439 24.1904 24.9408 23.9936 24.9408 23.7545ZM24.7298 24.0451H24.6079C24.6032 24.017 24.5845 23.867 24.5845 23.8623C24.5751 23.8295 24.5657 23.8107 24.5236 23.8107H24.4204V24.0451H24.3079V23.4592H24.5095C24.5798 23.4592 24.7158 23.4592 24.7158 23.6139C24.7158 23.7217 24.6454 23.7451 24.6032 23.7592C24.6829 23.7639 24.6876 23.8154 24.7017 23.8904C24.7064 23.9373 24.7158 24.017 24.7298 24.0451ZM24.5986 23.6326C24.5986 23.5529 24.5423 23.5529 24.5142 23.5529H24.4204V23.717H24.5095C24.5845 23.717 24.5986 23.6654 24.5986 23.6326ZM11.8903 16.9527C11.8903 16.8261 11.8247 16.7136 11.7168 16.6527L8.84329 14.9979C8.79641 14.9698 8.74016 14.9557 8.68391 14.951H8.65578C8.59953 14.951 8.54797 14.9698 8.4964 14.9979L5.62755 16.6527C5.51973 16.7136 5.4541 16.8308 5.4541 16.9527L5.45879 21.406C5.45879 21.4669 5.4916 21.5232 5.54317 21.556C5.59473 21.5888 5.66036 21.5888 5.71661 21.556L7.42292 20.5762C7.53074 20.5106 7.59637 20.3981 7.59637 20.2762V18.1949C7.59637 18.073 7.662 17.9558 7.76981 17.8949L8.4964 17.4777C8.55265 17.4449 8.60891 17.4308 8.66985 17.4308C8.73079 17.4308 8.79173 17.4449 8.84329 17.4777L9.56988 17.8949C9.6777 17.9558 9.74332 18.073 9.74332 18.1949V20.2762C9.74332 20.3981 9.80895 20.5153 9.91677 20.5762L11.6231 21.556C11.6746 21.5888 11.745 21.5888 11.7965 21.556C11.8481 21.5278 11.8809 21.4669 11.8809 21.406L11.8903 16.9527ZM27.6034 12.0916V20.3606C27.6034 20.4825 27.5377 20.5997 27.4299 20.6606L24.5564 22.3201C24.4486 22.381 24.3173 22.381 24.2095 22.3201L21.3359 20.6606C21.2281 20.5997 21.1625 20.4825 21.1625 20.3606V17.0417C21.1625 16.9199 21.2281 16.8027 21.3359 16.7417L24.2095 15.0823C24.3173 15.0214 24.4486 15.0214 24.5564 15.0823L25.2736 15.4948C25.3533 15.5417 25.4564 15.4807 25.4564 15.3917V10.9853C25.4564 10.854 25.597 10.7696 25.7142 10.8353L27.4252 11.7915C27.533 11.8478 27.6034 11.965 27.6034 12.0916ZM25.447 18.134C25.447 18.1012 25.4283 18.073 25.4048 18.059L24.4204 17.4871C24.3923 17.473 24.3595 17.473 24.3314 17.4871L23.347 18.059C23.3188 18.073 23.3048 18.1012 23.3048 18.134V19.2731C23.3048 19.3059 23.3235 19.334 23.347 19.3481L24.3314 19.9153C24.3595 19.9293 24.3923 19.9293 24.4157 19.9153L25.4002 19.3481C25.4283 19.334 25.4423 19.3059 25.4423 19.2731V18.134H25.447ZM35.2818 18.1012C35.3896 18.0402 35.4552 17.923 35.4552 17.8011V16.9995C35.4552 16.8777 35.3896 16.7605 35.2818 16.6995L32.427 15.0401C32.3192 14.9792 32.1879 14.9792 32.0801 15.0401L29.2065 16.6995C29.0987 16.7605 29.0331 16.8777 29.0331 16.9995V20.3184C29.0331 20.445 29.0987 20.5575 29.2065 20.6184L32.0613 22.2451C32.1645 22.306 32.2957 22.306 32.4035 22.2451L34.1286 21.2841C34.2458 21.2185 34.2458 21.0497 34.1286 20.9841L31.2363 19.3246C31.1801 19.2918 31.1472 19.2356 31.1472 19.1746V18.134C31.1472 18.073 31.1801 18.0168 31.2363 17.984L32.1363 17.4636C32.1879 17.4308 32.2582 17.4308 32.3098 17.4636L33.2098 17.984C33.2614 18.0168 33.2989 18.073 33.2989 18.134V18.9496C33.2989 19.0809 33.4442 19.1653 33.5614 19.0996L35.2818 18.1012ZM31.6582 18.2652C31.6394 18.2793 31.6254 18.298 31.6254 18.3215V18.959C31.6254 18.9824 31.6394 19.0059 31.6582 19.0152L32.2113 19.334C32.2301 19.3481 32.2582 19.3481 32.277 19.334L32.8301 19.0152C32.8489 19.0012 32.8629 18.9824 32.8629 18.959V18.3215C32.8629 18.298 32.8489 18.2746 32.8301 18.2652L32.277 17.9465C32.2582 17.9324 32.2301 17.9324 32.2113 17.9465L31.6582 18.2652ZM19.7421 20.3044V17.0042C19.7421 16.8824 19.6671 16.7652 19.5593 16.7042L16.6951 15.0542C16.5967 14.9979 16.4608 14.9885 16.3483 15.0542L13.4841 16.7042C13.3763 16.7652 13.3013 16.8777 13.3013 17.0042V20.3044C13.3013 20.4356 13.3903 20.5481 13.4888 20.6044L16.3576 22.2544C16.4701 22.3201 16.6014 22.3154 16.7045 22.2544L19.564 20.6044C19.6484 20.5575 19.7093 20.4778 19.7328 20.384C19.7374 20.3606 19.7421 20.3325 19.7421 20.3044ZM16.2592 14.4495L16.2217 14.4729H16.2733L16.2592 14.4495ZM19.8312 20.5528L19.8124 20.52V20.5622L19.8312 20.5528Z" fill="#7A7A7A"/>
</svg>
