<svg width="41" height="40" viewBox="0 0 41 40" fill="none" xmlns="http://www.w3.org/2000/svg">
<path d="M28.2833 16.1514C28.0197 16.0635 27.756 15.9805 27.4924 15.9023C27.5363 15.7217 27.5754 15.541 27.6144 15.3604C28.215 12.4504 27.8195 10.1116 26.4866 9.34019C25.2024 8.60293 23.1078 9.36949 20.9888 11.2151C20.7789 11.3957 20.5738 11.5862 20.3785 11.7766C20.2467 11.6496 20.1099 11.5227 19.9732 11.4006C17.7517 9.42808 15.5252 8.59805 14.1923 9.37437C12.9131 10.1165 12.5322 12.3186 13.0693 15.0723C13.123 15.3457 13.1816 15.6143 13.25 15.8877C12.9375 15.9756 12.6299 16.0732 12.3418 16.1758C9.73452 17.079 7.8645 18.5047 7.8645 19.9793C7.8645 21.5026 9.85658 23.0309 12.5664 23.9586C12.7861 24.0318 13.0058 24.105 13.2304 24.1685C13.1572 24.4615 13.0937 24.7495 13.0351 25.0474C12.5225 27.7572 12.9228 29.9055 14.2021 30.6428C15.5203 31.4044 17.737 30.6232 19.8951 28.7337C20.066 28.5823 20.2369 28.4261 20.4078 28.2601C20.6226 28.47 20.8472 28.6702 21.0718 28.8655C23.1615 30.6623 25.2269 31.3898 26.5012 30.6525C27.8195 29.8909 28.2492 27.5814 27.6925 24.7691C27.6486 24.5542 27.5998 24.3345 27.5461 24.1099C27.7023 24.066 27.8537 24.0171 28.005 23.9683C30.8223 23.0358 32.8632 21.527 32.8632 19.9793C32.8632 18.4999 30.9394 17.0644 28.2833 16.1514ZM21.6772 12.0061C23.4936 10.4241 25.1878 9.80404 25.9592 10.2483C26.7844 10.722 27.1018 12.6359 26.5842 15.1504C26.55 15.3164 26.5159 15.4776 26.4719 15.6387C25.388 15.3946 24.2894 15.2188 23.186 15.1211C22.5512 14.213 21.8579 13.3439 21.106 12.5285C21.2964 12.3478 21.4819 12.177 21.6772 12.0061ZM16.0281 22.5133C16.2771 22.9381 16.531 23.3629 16.7996 23.7779C16.0379 23.6949 15.2811 23.5728 14.5341 23.4117C14.7489 22.7086 15.0174 21.9811 15.3299 21.239C15.5545 21.6686 15.784 22.0934 16.0281 22.5133ZM14.5487 16.6396C15.2518 16.4834 15.9988 16.3564 16.7752 16.2588C16.5164 16.664 16.2625 17.079 16.0232 17.4989C15.784 17.914 15.5496 18.3387 15.3299 18.7684C15.0223 18.0409 14.7635 17.328 14.5487 16.6396ZM15.8865 20.0037C16.2088 19.3299 16.5603 18.6708 16.9314 18.0214C17.3025 17.372 17.7028 16.7421 18.1227 16.1221C18.8551 16.0684 19.6022 16.0391 20.3638 16.0391C21.1255 16.0391 21.8774 16.0684 22.6049 16.1221C23.0199 16.7373 23.4154 17.3671 23.7914 18.0116C24.1673 18.6561 24.5189 19.3152 24.8509 19.9842C24.5238 20.6579 24.1722 21.322 23.7963 21.9762C23.4252 22.6256 23.0297 23.2555 22.6147 23.8804C21.8872 23.9341 21.1304 23.9586 20.3638 23.9586C19.5973 23.9586 18.8551 23.9341 18.1374 23.8902C17.7126 23.2701 17.3122 22.6354 16.9363 21.986C16.5603 21.3366 16.2137 20.6775 15.8865 20.0037ZM24.7044 22.5036C24.9534 22.0739 25.1878 21.6393 25.4173 21.1999C25.7298 21.9079 26.0032 22.6256 26.2424 23.3629C25.4856 23.5338 24.7191 23.6656 23.9476 23.7535C24.2113 23.3434 24.4603 22.9235 24.7044 22.5036ZM25.4075 18.7684C25.178 18.3387 24.9437 17.9091 24.6995 17.4892C24.4603 17.0742 24.2113 16.664 23.9525 16.2588C24.7386 16.3564 25.4905 16.4882 26.1936 16.6494C25.969 17.372 25.7053 18.0751 25.4075 18.7684ZM20.3736 13.2755C20.8863 13.8321 21.3696 14.418 21.8188 15.0235C20.8521 14.9795 19.8805 14.9795 18.9137 15.0235C19.3922 14.3936 19.8853 13.8077 20.3736 13.2755ZM14.7098 10.2825C15.5301 9.80404 17.3513 10.4876 19.2701 12.1867C19.3922 12.2941 19.5143 12.4113 19.6412 12.5285C18.8844 13.3439 18.1862 14.213 17.5466 15.1211C16.4431 15.2188 15.3495 15.3897 14.2655 15.6289C14.2021 15.3799 14.1483 15.126 14.0946 14.8721C13.6357 12.509 13.9384 10.7268 14.7098 10.2825ZM13.5136 23.1529C13.3085 23.0943 13.1084 23.0309 12.9082 22.9625C11.8682 22.6354 10.6866 22.1178 9.83217 21.4392C9.33903 21.0974 9.00702 20.5701 8.91425 19.9793C8.91425 19.0858 10.4571 17.9433 12.6836 17.1669C12.9619 17.0693 13.2451 16.9814 13.5283 16.8984C13.8603 17.9579 14.2606 18.9979 14.7245 20.0037C14.2558 21.0241 13.8505 22.0788 13.5136 23.1529ZM19.2067 27.9378C18.401 28.6751 17.4685 29.261 16.4529 29.6614C15.9109 29.9201 15.286 29.9446 14.7294 29.7248C13.953 29.2757 13.6308 27.5521 14.0702 25.2329C14.1239 24.9595 14.1825 24.6861 14.2509 24.4175C15.3446 24.6519 16.448 24.813 17.5661 24.896C18.2106 25.809 18.9186 26.683 19.6754 27.5033C19.5192 27.6546 19.3629 27.8011 19.2067 27.9378ZM20.4029 26.7514C19.9049 26.2143 19.4069 25.6186 18.9235 24.979C19.3922 24.9985 19.8756 25.0083 20.3638 25.0083C20.8667 25.0083 21.3599 24.9985 21.8481 24.9741C21.3989 25.5942 20.9156 26.185 20.4029 26.7514ZM26.7844 28.2161C26.7404 28.8118 26.4475 29.3684 25.9788 29.7444C25.2024 30.1936 23.5473 29.6077 21.7602 28.0745C21.5552 27.8988 21.3501 27.7084 21.1402 27.5131C21.8872 26.6879 22.5756 25.8139 23.2006 24.896C24.3187 24.8032 25.4319 24.6323 26.5305 24.3833C26.5793 24.5835 26.6233 24.7837 26.6623 24.979C26.9016 26.0336 26.9406 27.1322 26.7844 28.2161ZM27.673 22.9674C27.5363 23.0113 27.3996 23.0553 27.258 23.0943C26.9162 22.0299 26.4963 20.99 26.0129 19.9793C26.4817 18.9832 26.8772 17.9579 27.2092 16.9081C27.4631 16.9814 27.7072 17.0595 27.9416 17.1376C30.2168 17.9188 31.8134 19.0809 31.8134 19.9695C31.8134 20.9265 30.1094 22.1618 27.673 22.9674ZM20.3638 22.235C21.5991 22.235 22.6 21.2341 22.6 19.9988C22.6 18.7635 21.5991 17.7626 20.3638 17.7626C19.1285 17.7626 18.1276 18.7635 18.1276 19.9988C18.1276 21.2341 19.1285 22.235 20.3638 22.235Z" fill="#7A7A7A"/>
</svg>
