<svg width="41" height="40" viewBox="0 0 41 40" fill="none" xmlns="http://www.w3.org/2000/svg">
<path d="M19.8797 25.1203C19.8547 25.1653 19.8672 25.1453 19.8797 25.1203V25.1203ZM30.2593 21.4956C29.4213 21.4953 28.5945 21.6877 27.8428 22.058C27.597 21.5622 27.3428 21.1289 27.3012 20.8039C27.2512 20.4248 27.197 20.1998 27.2553 19.7499C27.3137 19.2999 27.5761 18.6625 27.572 18.6166C27.5678 18.5708 27.5137 18.3416 26.9762 18.3375C26.4387 18.3333 25.9763 18.4416 25.9225 18.5833C25.8276 18.8422 25.7538 19.1083 25.7017 19.3791C25.6059 19.8665 24.6272 21.608 24.0731 22.5163C23.8898 22.1622 23.7356 21.8497 23.7023 21.5997C23.6523 21.2206 23.5981 20.9956 23.6565 20.5456C23.7148 20.0957 23.9773 19.4582 23.9731 19.4124C23.9689 19.3666 23.9148 19.1374 23.3777 19.1332C22.8407 19.1291 22.3778 19.2374 22.3237 19.3791C22.2695 19.5207 22.2112 19.854 22.1028 20.1748C21.9945 20.4956 20.6909 23.3954 20.3497 24.1495C20.1747 24.5328 20.0247 24.8411 19.9164 25.0494C19.8997 25.0828 19.8872 25.1036 19.8789 25.1203C19.8914 25.0994 19.8997 25.0786 19.8997 25.0869C19.808 25.2661 19.7539 25.3661 19.7539 25.3661V25.3702C19.683 25.5036 19.6039 25.6244 19.5664 25.6244C19.5414 25.6244 19.4872 25.2744 19.5789 24.7953C19.7747 23.787 20.2372 22.2205 20.233 22.1663C20.2288 22.1372 20.3205 21.8664 19.9289 21.7205C19.5497 21.583 19.4122 21.8122 19.3789 21.8122C19.3456 21.8122 19.3206 21.8955 19.3206 21.8955C19.3206 21.8955 19.7414 20.129 18.5127 20.129C17.7461 20.129 16.6795 20.9706 16.1554 21.733C15.8263 21.9122 15.1138 22.2997 14.3639 22.7121C14.0764 22.8704 13.7806 23.0329 13.5015 23.1871C13.4806 23.1662 13.464 23.1454 13.4431 23.1246C11.952 21.533 9.1989 20.4081 9.31555 18.2708C9.35722 17.4917 9.62803 15.446 14.6097 12.9629C18.6927 10.9297 21.957 11.488 22.5191 12.7296C23.3273 14.5003 20.7738 17.7959 16.5337 18.2708C14.9176 18.45 14.0681 17.825 13.8556 17.5917C13.6348 17.3459 13.6015 17.3334 13.5181 17.3792C13.3806 17.4542 13.4681 17.6709 13.5181 17.8C13.6431 18.1292 14.1639 18.7124 15.0509 19.0041C15.83 19.2582 17.7249 19.3999 20.0159 18.5125C22.5899 17.5209 24.5935 14.7586 24.006 12.4463C23.4077 10.0965 19.5114 9.32571 15.8271 10.6339C13.6319 11.413 11.2579 12.6379 9.55012 14.2336C7.52153 16.1335 7.19698 17.7875 7.3303 18.4791C7.80484 20.9331 11.1871 22.533 12.5407 23.7162C12.474 23.7537 12.4116 23.787 12.3532 23.8204C11.6745 24.1578 9.09599 25.5077 8.45062 26.9326C7.72152 28.5491 8.57145 29.7074 9.12932 29.8657C10.8704 30.349 12.6532 29.4782 13.611 28.0492C14.5689 26.6201 14.4526 24.7536 14.011 23.9037C14.0068 23.8912 13.9985 23.8829 13.9943 23.8704C14.1693 23.7662 14.3485 23.662 14.5276 23.5579C14.873 23.3537 15.2105 23.1663 15.5063 23.0038C15.3396 23.4537 15.2188 23.9953 15.1563 24.7786C15.0813 25.6952 15.4605 26.8826 15.9521 27.3492C16.1687 27.5534 16.4308 27.5576 16.5933 27.5576C17.1682 27.5576 17.4266 27.0826 17.7136 26.516C18.0678 25.8244 18.3802 25.0203 18.3802 25.0203C18.3802 25.0203 17.9886 27.1951 19.0593 27.1951C19.4506 27.1951 19.8422 26.691 20.0176 26.4327V26.4368C20.0176 26.4368 20.0259 26.4202 20.0468 26.3868C20.0884 26.3243 20.1093 26.2868 20.1093 26.2868V26.2743C20.2676 26.0035 20.6134 25.3827 21.1338 24.3578C21.8087 23.0329 22.4541 21.3789 22.4541 21.3789C22.5164 21.7425 22.6027 22.1016 22.7124 22.4538C22.829 22.8496 23.0748 23.2829 23.2707 23.7037C23.1123 23.9204 23.0165 24.0453 23.0165 24.0453C23.0168 24.0485 23.0183 24.0515 23.0207 24.0537C22.8957 24.2203 22.754 24.3995 22.6082 24.5745C22.0753 25.2078 21.4416 25.9327 21.3583 26.141C21.2583 26.3868 21.2833 26.5701 21.475 26.7118C21.6166 26.8201 21.8666 26.8368 22.1287 26.816C22.6078 26.7826 22.9453 26.666 23.1078 26.591C23.4073 26.4836 23.6904 26.3349 23.9489 26.1493C24.4697 25.766 24.7864 25.2161 24.7572 24.4911C24.7405 24.0912 24.6114 23.6912 24.4531 23.3162C24.4989 23.2496 24.5489 23.1787 24.5947 23.1079C25.4192 21.9039 26.0567 20.5823 26.0567 20.5823C26.1191 20.9459 26.2053 21.305 26.315 21.6572C26.415 21.9947 26.6104 22.3655 26.7895 22.728C26.015 23.3571 25.5359 24.0862 25.3692 24.5653C25.0609 25.4527 25.3026 25.8527 25.7567 25.9444C25.9609 25.986 26.2525 25.8902 26.4692 25.7985C26.7909 25.6914 27.0943 25.5354 27.3687 25.3361C27.8895 24.9528 28.3932 24.4153 28.3598 23.6862C28.3473 23.3571 28.2557 23.0279 28.1349 22.7113C28.789 22.4363 29.6385 22.2863 30.7217 22.4113C33.0415 22.6821 33.4957 24.132 33.4082 24.7361C33.3207 25.3402 32.8332 25.6777 32.6707 25.7777C32.5082 25.8777 32.4583 25.9152 32.4707 25.9902C32.4916 26.0985 32.5666 26.0943 32.7041 26.0693C32.8957 26.036 33.9202 25.5777 33.966 24.457C34.0327 23.0404 32.6707 21.4822 30.258 21.4947L30.2593 21.4956ZM12.3782 27.5242C11.612 28.3617 10.5371 28.6783 10.0751 28.4117C9.57928 28.1233 9.7751 26.8909 10.7204 25.9985C11.2954 25.4569 12.0366 24.9569 12.5282 24.6486C12.6407 24.582 12.8032 24.482 13.0032 24.3612C13.0365 24.3403 13.0532 24.332 13.0532 24.332C13.0907 24.307 13.1323 24.2862 13.174 24.2612C13.5194 25.5277 13.1865 26.6443 12.3782 27.5234V27.5242ZM17.9761 23.7162C17.7095 24.3703 17.1474 26.0368 16.8058 25.9494C16.5141 25.8744 16.335 24.6036 16.7474 23.3537C16.9558 22.7246 17.3974 21.9747 17.6599 21.683C18.0803 21.2122 18.5427 21.0623 18.651 21.2497C18.7969 21.4956 18.1427 23.3079 17.9761 23.7162ZM22.6007 25.9244C22.4882 25.9827 22.3841 26.0202 22.3341 25.991C22.2966 25.9702 22.3799 25.891 22.3799 25.891C22.3799 25.891 22.959 25.2702 23.1882 24.9869C23.3215 24.8203 23.4756 24.6245 23.6419 24.4078C23.6419 24.4286 23.6461 24.4495 23.6461 24.4745C23.6406 25.2203 22.9244 25.7244 22.5995 25.9244H22.6007ZM26.1663 25.1119C26.0829 25.0536 26.0954 24.8578 26.3746 24.2495C26.4829 24.012 26.7325 23.612 27.1662 23.2287C27.2153 23.3738 27.242 23.5256 27.2453 23.6787C27.2412 24.6161 26.5704 24.9661 26.1667 25.1119H26.1663Z" fill="#7A7A7A"/>
</svg>
