<svg width="41" height="40" viewBox="0 0 41 40" fill="none" xmlns="http://www.w3.org/2000/svg">
<path d="M10.3123 14.9975C9.56922 14.9975 8.93356 15.1096 8.40595 15.3338C7.88273 15.5581 7.48043 15.8858 7.19904 16.3167C6.92204 16.7432 6.78354 17.2023 6.78354 17.6947C6.78354 18.4598 7.08032 19.1086 7.67388 19.6406C8.09597 20.0188 8.83057 20.3374 9.87699 20.5968C10.6904 20.799 11.2114 20.9396 11.44 21.0187C11.7742 21.1374 12.0071 21.2784 12.139 21.4411C12.2753 21.5994 12.3432 21.7927 12.3432 22.0213C12.3432 22.3775 12.1829 22.6895 11.862 22.9577C11.5454 23.2215 11.0726 23.3534 10.4438 23.3534C9.85028 23.3534 9.37796 23.2042 9.02622 22.9052C8.67888 22.6063 8.44804 22.138 8.33373 21.5005L6.43433 21.685C6.56183 22.7666 6.95298 23.591 7.6081 24.1582C8.26321 24.7209 9.20176 25.0025 10.4241 25.0025C11.2638 25.0025 11.9655 24.8858 12.5282 24.6528C13.091 24.4154 13.5263 24.0547 13.8341 23.571C14.1419 23.0874 14.2956 22.5689 14.2956 22.0149C14.2956 21.4037 14.1657 20.8914 13.9063 20.4781C13.6513 20.0604 13.2951 19.7326 12.8379 19.4952C12.385 19.2534 11.6839 19.0205 10.7342 18.7963C9.7845 18.5721 9.18637 18.3565 8.94015 18.1498C8.7467 17.9871 8.6503 17.7918 8.6503 17.5632C8.6503 17.3126 8.75329 17.1122 8.95994 16.9627C9.2809 16.7297 9.72531 16.6135 10.2925 16.6135C10.8421 16.6135 11.253 16.7231 11.5256 16.9429C11.8026 17.1583 11.9827 17.5145 12.0663 18.0113L14.0186 17.9257C13.9878 17.0376 13.6646 16.3274 13.0491 15.7953C12.4379 15.2633 11.5258 14.9975 10.3123 14.9975ZM29.2272 14.9975C28.4401 14.9975 27.7451 15.1248 27.1428 15.3799C26.6899 15.5689 26.2724 15.8591 25.8898 16.2504C25.5117 16.6417 25.2129 17.0836 24.9931 17.576C24.6985 18.2443 24.5509 19.0713 24.5509 20.0561C24.5509 21.595 24.9755 22.804 25.8241 23.6833C26.6726 24.5583 27.8156 24.9956 29.2534 24.9956C30.6735 24.9956 31.8079 24.5562 32.6565 23.6769C33.505 22.7931 33.9292 21.5705 33.9292 20.0096C33.9292 18.4356 33.5005 17.2069 32.6431 16.3231C31.7901 15.4394 30.6517 14.9975 29.2272 14.9975ZM15.9378 15.1622V24.8309H23.2915V23.202H17.8901V20.5706H22.744V18.9412H17.8901V16.798H23.1065V15.1622H15.9378ZM29.2469 16.6659C30.0515 16.6659 30.6953 16.9388 31.179 17.484C31.667 18.0292 31.911 18.8557 31.911 19.9636C31.911 21.0848 31.6604 21.927 31.1592 22.4897C30.6624 23.0481 30.0252 23.3272 29.2469 23.3272C28.4687 23.3272 27.8265 23.0456 27.3208 22.4828C26.8152 21.9156 26.5625 21.0846 26.5625 19.9899C26.5625 18.8775 26.8086 18.0465 27.301 17.4969C27.7935 16.9429 28.4423 16.6659 29.2469 16.6659Z" fill="#7A7A7A"/>
</svg>
