<svg width="41" height="40" viewBox="0 0 41 40" fill="none" xmlns="http://www.w3.org/2000/svg">
<path d="M8.22729 20V7.5H20.7273H33.2273V20V32.5H20.7273H8.22729V20ZM29.1652 30.1676C30.5707 29.6247 31.332 28.3881 31.1909 26.8772C31.0469 25.3349 30.39 24.6273 28.0595 23.5039C27.2032 23.0912 26.4383 22.6759 26.3596 22.5811C26.0897 22.2559 26.0758 21.6924 26.3297 21.3696C26.8007 20.7709 27.7189 20.8347 28.3454 21.5098L28.7413 21.9364L29.6551 21.3246L30.569 20.7127L30.3523 20.4119C29.9643 19.8735 29.4052 19.4055 28.8384 19.1446C28.3761 18.9318 28.0964 18.8889 27.1717 18.889C26.1821 18.8891 25.9999 18.9214 25.5051 19.1846C24.346 19.8012 23.7893 20.7158 23.7853 22.01C23.7832 22.6716 23.838 22.9083 24.1272 23.487C24.5633 24.3596 25.1629 24.8218 26.9467 25.6604C28.511 26.3958 28.7829 26.6145 28.7829 27.1378C28.7829 27.9157 28.2524 28.3133 27.2131 28.3142C26.4737 28.3151 25.7231 27.9356 25.3261 27.3607C25.1891 27.1623 25.0634 26.9817 25.0466 26.9593C25.0208 26.9246 23.2674 27.89 23.1211 28.0195C23.0129 28.1151 23.5113 28.862 23.9581 29.2738C24.9072 30.1487 26.0069 30.5165 27.5051 30.4602C28.2099 30.4337 28.6999 30.3473 29.1652 30.1676ZM19.3384 25.7222V21.0556H20.9495H22.5606V20V18.9444H18.1162H13.6717V20V21.0556H15.2829H16.894V25.7222V30.3889H18.1162H19.3384V25.7222Z" fill="#7A7A7A"/>
</svg>
