<svg width="40" height="40" viewBox="0 0 40 40" fill="none" xmlns="http://www.w3.org/2000/svg">
<path d="M11.3098 12.1774C11.3098 9.59413 13.4039 7.5 15.9872 7.5H24.013C26.5962 7.5 28.6904 9.59413 28.6904 12.1774C28.6904 13.8131 27.8507 15.2527 26.5789 16.0887C27.8507 16.9248 28.6904 18.3644 28.6904 20.0001C28.6904 22.5834 26.5962 24.6775 24.013 24.6775H23.9114C22.7004 24.6775 21.5968 24.2172 20.7662 23.4621V27.7718C20.7662 30.3895 18.6173 32.5 16.0124 32.5C13.4356 32.5 11.3098 30.4123 11.3098 27.8226C11.3098 26.187 12.1494 24.7474 13.4211 23.9114C12.1494 23.0753 11.3098 21.6357 11.3098 20.0001C11.3098 18.3644 12.1495 16.9248 13.4213 16.0887C12.1495 15.2527 11.3098 13.8131 11.3098 12.1774ZM19.234 16.8548H15.9872C14.2501 16.8548 12.8419 18.263 12.8419 20.0001C12.8419 21.7305 14.2392 23.1345 15.9671 23.1453C15.9738 23.1453 15.9805 23.1453 15.9872 23.1453H19.234V16.8548ZM20.7662 20.0001C20.7662 21.7372 22.1743 23.1454 23.9114 23.1454H24.013C25.7501 23.1454 27.1583 21.7372 27.1583 20.0001C27.1583 18.263 25.7501 16.8548 24.013 16.8548H23.9114C22.1743 16.8548 20.7662 18.263 20.7662 20.0001ZM15.9872 24.6775C15.9805 24.6775 15.9738 24.6774 15.9671 24.6774C14.2392 24.6882 12.8419 26.0922 12.8419 27.8226C12.8419 29.5533 14.2689 30.9679 16.0124 30.9679C17.784 30.9679 19.234 29.5306 19.234 27.7718V24.6775H15.9872ZM15.9872 9.03212C14.2501 9.03212 12.8419 10.4403 12.8419 12.1774C12.8419 13.9145 14.2501 15.3226 15.9872 15.3226H19.234V9.03212H15.9872ZM20.7662 15.3226H24.013C25.7501 15.3226 27.1583 13.9145 27.1583 12.1774C27.1583 10.4403 25.7501 9.03212 24.013 9.03212H20.7662V15.3226Z" fill="#1282A2"/>
</svg>
