<svg width="40" height="40" viewBox="0 0 40 40" fill="none" xmlns="http://www.w3.org/2000/svg">
<path d="M32.0287 18.8867L21.1161 7.97136C20.814 7.66954 20.4044 7.5 19.9774 7.5C19.5504 7.5 19.1408 7.66954 18.8387 7.97136L16.5697 10.2387L19.4448 13.1137C20.9548 12.6037 22.3845 14.0496 21.8661 15.5513L24.6374 18.3225C26.5476 17.664 28.0515 20.0525 26.6168 21.4861C25.1385 22.9644 22.6987 21.3259 23.4917 19.4024L20.9052 16.8192V23.6189C22.317 24.3187 22.1474 25.9544 21.4119 26.6882C21.0525 27.0473 20.5653 27.2491 20.0572 27.2491C19.5492 27.2491 19.0619 27.0473 18.7026 26.6882C17.7221 25.706 18.0848 24.0704 19.3304 23.5631V16.6992C18.1696 16.2243 17.9576 14.9838 18.2902 14.188L15.4559 11.3503L7.97135 18.8359C7.66939 19.138 7.49976 19.5476 7.49976 19.9746C7.49976 20.4017 7.66939 20.8113 7.97135 21.1133L18.8873 32.0287C19.1893 32.3305 19.5987 32.5 20.0257 32.5C20.4526 32.5 20.8621 32.3305 21.1641 32.0287L32.0287 21.1641C32.3306 20.8621 32.5003 20.4525 32.5003 20.0254C32.5003 19.5983 32.3306 19.1887 32.0287 18.8867Z" fill="#1282A2"/>
</svg>
