<svg width="41" height="40" viewBox="0 0 41 40" fill="none" xmlns="http://www.w3.org/2000/svg">
<path d="M19.4436 32.1851C19.1621 32.0071 18.991 31.7659 18.896 31.4132C18.7317 30.8029 18.4296 30.565 17.4854 30.302C16.4073 30.0017 16.0788 29.8524 15.9446 29.6017C15.7253 29.1919 15.8122 28.8897 16.3137 28.317C16.5844 28.0079 16.8346 27.6687 16.8696 27.5631C17.0083 27.1452 16.112 26.6764 13.9338 26.0276C13.4939 25.8966 12.6876 25.5693 12.142 25.3004C11.2339 24.8527 11.1501 24.779 11.1501 24.4275C11.1501 24.0784 11.2402 23.9965 12.1402 23.527C12.6847 23.2429 13.203 22.9367 13.292 22.8464C13.5924 22.542 12.998 22.2803 10.0051 21.3992C8.12918 20.847 7.5238 19.825 8.37971 18.6553C8.71832 18.1926 14.7832 11.9244 17.599 9.12698C18.8964 7.83812 19.3354 7.59741 20.3891 7.59741C21.5828 7.59741 21.8592 7.79854 24.9243 10.8976C30.683 16.7202 32.5548 18.6768 32.7738 19.1025C33.2824 20.0915 32.9414 20.9475 31.7165 21.756C30.9464 22.2644 30.1363 22.6025 27.4284 23.546C26.0072 24.0411 25.3503 24.4447 25.5581 24.6951C25.6309 24.7828 26.0895 25.0916 26.5772 25.3814C27.6772 26.0349 27.8256 26.2725 27.5355 26.9157C27.3216 27.3903 26.4549 28.0746 26.0667 28.0755C25.6195 28.0765 23.9499 28.8407 23.4552 29.2707L22.9247 29.7319L23.2082 29.9593C23.3641 30.0844 23.6165 30.2757 23.7691 30.3844C24.1495 30.6552 24.0089 31.0304 23.3684 31.4543C22.5845 31.973 21.6031 32.3123 20.687 32.3812C19.9992 32.4329 19.7813 32.3985 19.4436 32.1851ZM20.4058 24.0121C20.4366 23.7954 20.3973 23.7437 20.2459 23.8019C20.1036 23.8564 20.0451 23.8022 20.0451 23.6159C20.0451 23.3789 20.0069 23.3662 19.6587 23.4876C19.3206 23.6054 19.2145 23.5781 18.8093 23.2691C18.4255 22.9764 18.3054 22.9414 18.1078 23.0648C17.9147 23.1854 17.8693 23.177 17.8693 23.0207C17.8693 22.8637 17.684 22.8309 16.8774 22.8451C16.3319 22.8547 16.016 22.8876 16.1754 22.9182C16.3348 22.9489 16.4351 23.0228 16.3982 23.0825C16.3613 23.1421 16.5188 23.2463 16.7483 23.3139C17.6274 23.573 18.2537 23.7324 18.3335 23.7173C18.3793 23.7087 18.4519 23.7555 18.4949 23.8214C18.6149 24.0049 19.685 24.3519 20.0451 24.3242C20.2697 24.3068 20.3772 24.2138 20.4058 24.0121ZM28.9803 22.6413C29.3544 22.5182 29.638 22.3951 29.6105 22.3675C29.5455 22.3026 27.9801 22.8303 27.9801 22.9171C27.9801 22.9534 28.0521 22.9564 28.1401 22.924C28.2281 22.8915 28.6062 22.7643 28.9803 22.6413ZM9.88241 19.0863C10.0542 18.8849 10.0634 18.849 9.91364 18.9645C9.78825 19.0612 9.67044 19.079 9.6264 19.0077C9.55391 18.8904 9.90097 18.6709 10.0942 18.7118C10.147 18.723 10.1902 18.644 10.1902 18.5363C10.1902 18.3798 10.1136 18.3971 9.80892 18.6224C9.53228 18.8269 9.46349 18.9475 9.55829 19.0617C9.64946 19.1716 9.63899 19.2392 9.52363 19.2855C9.4327 19.322 9.42137 19.3564 9.49845 19.3619C9.57553 19.3675 9.74831 19.2434 9.88241 19.0863ZM10.4935 18.0653C10.4554 18.0035 10.5011 17.8581 10.5951 17.7421C10.7157 17.5934 10.7191 17.5593 10.6068 17.6268C10.3344 17.7904 10.1774 18.1775 10.3835 18.1775C10.4822 18.1775 10.5317 18.127 10.4935 18.0653ZM11.1274 17.7591C11.0679 17.6042 11.0278 17.611 10.8903 17.7991C10.6881 18.0757 10.787 18.2873 11.0259 18.0891C11.121 18.0101 11.1667 17.8616 11.1274 17.7591ZM11.2141 17.3243C11.2141 17.2539 11.1887 17.1963 11.1577 17.1963C11.1266 17.1963 11.0656 17.2539 11.0221 17.3243C10.9786 17.3947 11.004 17.4523 11.0786 17.4523C11.1531 17.4523 11.2141 17.3947 11.2141 17.3243ZM11.598 16.9403C11.598 16.8699 11.5405 16.8123 11.4701 16.8123C11.3997 16.8123 11.3421 16.8699 11.3421 16.9403C11.3421 17.0107 11.3997 17.0683 11.4701 17.0683C11.5405 17.0683 11.598 17.0107 11.598 16.9403ZM11.9983 16.8443C12.1575 16.6413 12.153 16.6368 11.95 16.796C11.8268 16.8926 11.726 16.9934 11.726 17.02C11.726 17.1253 11.8311 17.0575 11.9983 16.8443ZM12.0371 16.3129C12.0035 16.2792 11.8765 16.3554 11.755 16.4823C11.5439 16.7027 11.5466 16.7054 11.8162 16.5435C11.9714 16.4503 12.0708 16.3465 12.0371 16.3129ZM12.6991 15.793C12.6919 15.6849 12.7744 15.6024 12.8825 15.6097C12.9932 15.6171 13.079 15.5194 13.079 15.3857C13.079 15.2553 13.0738 15.1485 13.0675 15.1485C13.0613 15.1485 12.8727 15.3378 12.6485 15.5691C12.3129 15.9153 12.2825 15.9896 12.4766 15.9896C12.609 15.9896 12.7065 15.9034 12.6991 15.793ZM20.7237 14.7244C21.3007 14.3503 21.8432 14.0024 21.9291 13.9512C22.015 13.9001 22.2569 13.9469 22.4667 14.0554C22.9317 14.2959 22.9887 14.299 22.9887 14.0837C22.9887 13.8285 23.5968 13.3376 23.6814 13.5246C23.7192 13.6082 23.7458 13.5327 23.7405 13.3567C23.7352 13.1807 23.773 12.9042 23.8244 12.7421L23.9179 12.4475L24.2212 12.7325C24.6076 13.0955 24.622 12.823 24.2366 12.4424L23.9486 12.1581L24.3034 12.3782C24.5379 12.5238 24.7263 12.5602 24.8593 12.4858C25.0257 12.3927 24.9329 12.2319 24.3206 11.5532C22.8829 9.95918 21.7684 8.85613 21.3987 8.66112C20.9179 8.40751 19.9391 8.40787 19.4593 8.66161C19.111 8.846 15.7485 12.1807 14.3629 13.7158C13.853 14.2808 13.7639 14.4515 13.8338 14.7301C13.9083 15.0267 13.8944 15.0455 13.7124 14.8945C13.5511 14.7606 13.4738 14.7574 13.3524 14.8798C13.2314 15.0017 13.2436 15.0181 13.4089 14.9552C13.525 14.911 13.6489 14.922 13.6844 14.9796C13.7198 15.0372 14.6063 15.0672 15.6543 15.0462L17.5598 15.0081L18.1202 13.7664C18.4284 13.0834 18.7166 12.4818 18.7606 12.4294C18.8046 12.377 19.0108 13.0244 19.2189 13.8681C19.4269 14.7117 19.6146 15.4025 19.6359 15.4032C19.6571 15.4037 20.1467 15.0984 20.7237 14.7244ZM24.5245 12.3329C24.5245 12.2625 24.5821 12.2049 24.6525 12.2049C24.7229 12.2049 24.7805 12.2625 24.7805 12.3329C24.7805 12.4033 24.7229 12.4608 24.6525 12.4608C24.5821 12.4608 24.5245 12.4033 24.5245 12.3329ZM13.3377 29.1631C12.7085 28.5339 13.1088 27.8157 14.2316 27.5596C14.7485 27.4417 15.6153 27.5889 15.7574 27.8188C15.7985 27.8852 15.7484 28.0996 15.6462 28.2952C15.3345 28.8922 14.7703 29.3358 14.2088 29.4256C13.7499 29.4989 13.6406 29.466 13.3377 29.1631ZM14.6057 27.8191C14.6504 27.7468 14.5455 27.6911 14.3648 27.6911C14.1889 27.6911 14.0093 27.7487 13.9658 27.8191C13.9211 27.8913 14.0259 27.947 14.2066 27.947C14.3826 27.947 14.5622 27.8894 14.6057 27.8191ZM28.3934 29.0108C27.9903 28.6702 27.915 28.1838 28.2092 27.8205L28.454 27.5182L28.953 27.7767C29.537 28.0792 29.8018 28.6142 29.5094 28.9005C29.1867 29.2165 28.6944 29.2651 28.3934 29.0108ZM28.748 27.947C28.748 27.8766 28.6617 27.8191 28.5561 27.8191C28.4505 27.8191 28.3641 27.8766 28.3641 27.947C28.3641 28.0174 28.4505 28.075 28.5561 28.075C28.6617 28.075 28.748 28.0174 28.748 27.947ZM29.292 26.9557C28.8245 26.7231 28.7882 26.5935 29.0758 26.183C29.3775 25.7522 29.9423 25.5153 30.6678 25.5153C31.4419 25.5153 32.041 25.7916 32.2055 26.2243C32.3592 26.6285 32.2661 26.8536 31.8706 27.0338C31.3957 27.2502 29.7857 27.2015 29.292 26.9557ZM30.6678 25.7713C30.4163 25.6087 30.0279 25.6087 30.0279 25.7713C30.0279 25.8417 30.2151 25.8984 30.4438 25.8973C30.7595 25.8959 30.8135 25.8654 30.6678 25.7713Z" fill="#1282A2"/>
</svg>
