<svg width="40" height="40" viewBox="0 0 40 40" fill="none" xmlns="http://www.w3.org/2000/svg">
<path d="M7.5 7.5V32.5H32.5V7.5H7.5ZM21.1049 26.9978C21.1049 29.4308 19.6763 30.5413 17.5949 30.5413C15.7143 30.5413 14.6261 29.5703 14.0681 28.3929L15.9821 27.2377C16.3504 27.8906 16.6853 28.4431 17.4944 28.4431C18.2645 28.4431 18.7556 28.1417 18.7556 26.9643V18.9788H21.1049V26.9978ZM26.6629 30.5413C24.481 30.5413 23.0692 29.5033 22.3828 28.1417L24.2969 27.0368C24.7991 27.8571 25.4576 28.4654 26.6127 28.4654C27.5837 28.4654 28.2087 27.9799 28.2087 27.3047C28.2087 26.5011 27.5725 26.2165 26.4955 25.7422L25.9096 25.4911C24.2132 24.7712 23.0915 23.8616 23.0915 21.9475C23.0915 20.1842 24.4364 18.8449 26.529 18.8449C28.0246 18.8449 29.096 19.3638 29.8661 20.7254L28.0357 21.8973C27.6339 21.1775 27.1987 20.8929 26.5234 20.8929C25.8371 20.8929 25.4018 21.3281 25.4018 21.8973C25.4018 22.6004 25.8371 22.885 26.8471 23.3259L27.433 23.577C29.4308 24.4308 30.5525 25.3069 30.5525 27.2712C30.5525 29.3806 28.8895 30.5413 26.6629 30.5413Z" fill="#1282A2"/>
</svg>
