<svg width="40" height="40" viewBox="0 0 40 40" fill="none" xmlns="http://www.w3.org/2000/svg">
<path d="M25.0328 23.3337C25.6061 22.9412 26.4016 22.6013 26.4016 22.6013C26.4016 22.6013 24.1379 23.0115 21.8859 23.199C19.131 23.4275 16.1712 23.4744 14.6855 23.2751C11.1701 22.8064 16.6158 21.5115 16.6158 21.5115C16.6158 21.5115 14.5042 21.3709 11.9013 22.6248C8.83042 24.113 19.5053 24.7927 25.0328 23.3337ZM20.0376 21.4529C18.9262 18.951 15.1769 16.7538 20.0376 12.9101C26.1009 8.11715 22.9915 5 22.9915 5C24.249 9.95111 18.5694 11.4511 16.5163 14.5272C15.1184 16.6307 17.2007 18.8865 20.0376 21.4529ZM26.7408 11.1288C26.7467 11.1288 16.4929 13.6952 21.3888 19.3436C22.8335 21.0076 21.0086 22.5076 21.0086 22.5076C21.0086 22.5076 24.676 20.6092 22.9915 18.2362C21.418 16.0213 20.2131 14.9198 26.7408 11.1288ZM26.384 26.9782C26.3521 27.0341 26.3127 27.0853 26.267 27.1306C33.7716 25.156 31.0108 20.1639 27.4252 21.4295C27.2315 21.5008 27.0642 21.6295 26.9455 21.7986C27.1549 21.7227 27.3701 21.6639 27.589 21.6228C29.4022 21.242 32.0051 24.0544 26.384 26.9782ZM29.1425 30.6286C29.1425 30.6286 29.9907 31.3258 28.2125 31.8707C24.8258 32.8961 14.1275 33.2067 11.1561 31.9118C10.0857 31.4489 12.092 30.7985 12.7237 30.6637C13.3788 30.5231 13.759 30.5465 13.759 30.5465C12.5716 29.7087 6.07894 32.193 10.46 32.902C22.4065 34.8473 32.2426 32.0289 29.1425 30.6286ZM16.0659 28.2028C11.4626 29.4919 18.8677 32.152 24.7287 29.6383C24.1571 29.4159 23.6053 29.1454 23.0792 28.8298C20.4646 29.3278 19.2538 29.363 16.879 29.0934C14.9195 28.8708 16.0659 28.2028 16.0659 28.2028ZM26.5829 33.8981C21.9795 34.7652 16.2999 34.6656 12.9366 34.109C12.9366 34.1031 13.6268 34.6773 17.1715 34.9059C22.5645 35.2516 30.847 34.7125 31.04 32.1578C31.04 32.1578 30.6657 33.1246 26.5829 33.8981ZM24.0326 25.6833C20.5699 26.3513 18.5636 26.3337 16.0308 26.07C14.0714 25.865 15.3523 24.9158 15.3523 24.9158C10.2752 26.6032 18.1717 28.5134 25.2668 26.4333C24.8082 26.2711 24.3881 26.0158 24.0326 25.6833Z" fill="#12728D"/>
</svg>
