<svg width="40" height="40" viewBox="0 0 40 40" fill="none" xmlns="http://www.w3.org/2000/svg">
<path d="M19.1813 7.50673C19.1276 7.51161 18.9565 7.52872 18.8025 7.54094C15.2517 7.86103 11.9257 9.77668 9.81916 12.721C8.64614 14.3581 7.89589 16.2151 7.61241 18.1821C7.51222 18.8687 7.5 19.0715 7.5 20.0024C7.5 20.9334 7.51222 21.1362 7.61241 21.8228C8.29179 26.5166 11.6325 30.4603 16.1632 31.9215C16.9746 32.183 17.8299 32.3613 18.8025 32.4688C19.1813 32.5104 20.8187 32.5104 21.1975 32.4688C22.8763 32.2831 24.2986 31.8678 25.7014 31.1518C25.9164 31.0419 25.958 31.0126 25.9286 30.9881C25.9091 30.9735 24.9927 29.7444 23.893 28.2588L21.8939 25.5588L19.3891 21.8521C18.0108 19.8143 16.8768 18.1479 16.8671 18.1479C16.8573 18.1454 16.8475 19.7923 16.8426 21.8033C16.8353 25.3242 16.8328 25.466 16.7889 25.549C16.7253 25.6688 16.6764 25.7176 16.5738 25.7714C16.4956 25.8105 16.4272 25.8178 16.0582 25.8178H15.6354L15.523 25.747C15.4497 25.7005 15.3959 25.6394 15.3592 25.5686L15.3079 25.4586L15.3128 20.5596L15.3201 15.658L15.3959 15.5627C15.435 15.5114 15.5181 15.4454 15.5767 15.4137C15.6769 15.3648 15.716 15.3599 16.1388 15.3599C16.6373 15.3599 16.7204 15.3795 16.85 15.5212C16.8866 15.5603 18.2429 17.603 19.8656 20.0635C21.4883 22.5241 23.7072 25.8838 24.7972 27.5331L26.7766 30.5312L26.8768 30.4652C27.7639 29.8886 28.7023 29.0676 29.4453 28.2124C31.0264 26.3969 32.0455 24.1832 32.3876 21.8228C32.4878 21.1362 32.5 20.9334 32.5 20.0024C32.5 19.0715 32.4878 18.8687 32.3876 18.1821C31.7082 13.4883 28.3675 9.54455 23.8368 8.08338C23.0376 7.82437 22.1872 7.646 21.2341 7.53849C20.9995 7.51406 19.3842 7.48718 19.1813 7.50673ZM24.2986 15.0667C24.4159 15.1254 24.5112 15.2378 24.5455 15.355C24.565 15.4186 24.5699 16.7771 24.565 19.8387L24.5577 24.232L23.783 23.0445L23.0059 21.857V18.6634C23.0059 16.5987 23.0156 15.4381 23.0303 15.3819C23.0694 15.2451 23.1549 15.1376 23.2722 15.074C23.3724 15.0227 23.4091 15.0178 23.7928 15.0178C24.1544 15.0178 24.218 15.0227 24.2986 15.0667Z" fill="#1282A2"/>
</svg>
