<svg width="40" height="40" viewBox="0 0 40 40" fill="none" xmlns="http://www.w3.org/2000/svg">
<path d="M19.8266 29.1875C19.7282 29.1875 19.6297 29.1594 19.5407 29.1125L18.6406 28.5781C18.5047 28.5031 18.5703 28.475 18.6172 28.4609C18.7953 28.4 18.8328 28.3859 19.025 28.2734C19.0438 28.264 19.0719 28.2687 19.0907 28.2781L19.7844 28.6906C19.8079 28.7047 19.8454 28.7047 19.8688 28.6906L22.5783 27.1249C22.6017 27.1109 22.6205 27.0827 22.6205 27.0499V23.9232C22.6205 23.8904 22.6064 23.8623 22.5783 23.8482L19.8688 22.2872C19.8454 22.2732 19.8126 22.2732 19.7844 22.2872L17.075 23.8482C17.0468 23.8623 17.0328 23.8951 17.0328 23.9232V27.0499C17.0328 27.078 17.0515 27.1062 17.075 27.1202L17.8156 27.5468C18.2188 27.7484 18.4672 27.5093 18.4672 27.2749V24.1858C18.4672 24.1436 18.5 24.1061 18.5469 24.1061H18.8891C18.9313 24.1061 18.9688 24.1389 18.9688 24.1858V27.2749C18.9688 27.814 18.6781 28.1187 18.1672 28.1187C18.0125 28.1187 17.8859 28.1187 17.5437 27.95L16.8312 27.5421C16.6578 27.439 16.5453 27.2515 16.5453 27.0499V23.9232C16.5453 23.7217 16.6531 23.5295 16.8312 23.431L19.5407 21.8654C19.7141 21.7669 19.9391 21.7669 20.1079 21.8654L22.8174 23.431C22.9908 23.5342 23.1033 23.7217 23.1033 23.9232V27.0499C23.1033 27.2515 22.9955 27.4437 22.8174 27.5421L20.1079 29.1078C20.0282 29.1594 19.9298 29.1875 19.8266 29.1875ZM22.0158 26.103C22.0158 25.5171 21.622 25.3624 20.7876 25.2499C19.9438 25.1373 19.8594 25.0811 19.8594 24.8842C19.8594 24.7201 19.9298 24.5045 20.5532 24.5045C21.111 24.5045 21.3173 24.6264 21.4017 25.0014C21.4111 25.0389 21.4392 25.0623 21.4767 25.0623H21.8283C21.8517 25.0623 21.8704 25.053 21.8845 25.0389C21.8986 25.0202 21.908 25.0014 21.9033 24.978C21.847 24.3311 21.4204 24.0311 20.5532 24.0311C19.7797 24.0311 19.3204 24.3592 19.3204 24.903C19.3204 25.4983 19.7797 25.6577 20.5204 25.7327C21.4064 25.8217 21.4767 25.9483 21.4767 26.1218C21.4767 26.4265 21.2329 26.553 20.661 26.553C19.9438 26.553 19.7844 26.3749 19.7329 26.0186C19.7282 25.9811 19.6954 25.953 19.6532 25.953H19.3016C19.2594 25.953 19.2219 25.9858 19.2219 26.0327C19.2219 26.4874 19.4704 27.0312 20.6563 27.0312C21.5236 27.0312 22.0158 26.6937 22.0158 26.103ZM24.5705 23.7545C24.5705 24.0404 24.3362 24.2748 24.0502 24.2748C23.7643 24.2748 23.5299 24.0404 23.5299 23.7545C23.5299 23.4592 23.7736 23.2342 24.0502 23.2342C24.3315 23.2295 24.5705 23.4592 24.5705 23.7545ZM24.4862 23.7545C24.4862 23.5107 24.2893 23.3185 24.0455 23.3185C23.8065 23.3185 23.6096 23.5107 23.6096 23.7545C23.6096 23.9982 23.8065 24.1951 24.0455 24.1951C24.2893 24.1904 24.4862 23.9936 24.4862 23.7545ZM24.2752 24.0451H24.1533C24.1487 24.017 24.1299 23.867 24.1299 23.8623C24.1205 23.8295 24.1112 23.8107 24.069 23.8107H23.9658V24.0451H23.8533V23.4592H24.0549C24.1252 23.4592 24.2612 23.4592 24.2612 23.6139C24.2612 23.7217 24.1908 23.7451 24.1487 23.7592C24.2283 23.7639 24.233 23.8154 24.2471 23.8904C24.2518 23.9373 24.2612 24.017 24.2752 24.0451ZM24.144 23.6326C24.144 23.5529 24.0877 23.5529 24.0596 23.5529H23.9658V23.717H24.0549C24.1299 23.717 24.144 23.6654 24.144 23.6326ZM11.4357 16.9527C11.4357 16.8261 11.3701 16.7136 11.2622 16.6527L8.3887 14.9979C8.34182 14.9698 8.28557 14.9557 8.22932 14.951H8.20119C8.14494 14.951 8.09338 14.9698 8.04181 14.9979L5.17296 16.6527C5.06514 16.7136 4.99951 16.8308 4.99951 16.9527L5.0042 21.406C5.0042 21.4669 5.03701 21.5232 5.08858 21.556C5.14014 21.5888 5.20577 21.5888 5.26202 21.556L6.96833 20.5762C7.07615 20.5106 7.14178 20.3981 7.14178 20.2762V18.1949C7.14178 18.073 7.20741 17.9558 7.31522 17.8949L8.04181 17.4777C8.09806 17.4449 8.15432 17.4308 8.21526 17.4308C8.2762 17.4308 8.33714 17.4449 8.3887 17.4777L9.11529 17.8949C9.22311 17.9558 9.28873 18.073 9.28873 18.1949V20.2762C9.28873 20.3981 9.35436 20.5153 9.46218 20.5762L11.1685 21.556C11.2201 21.5888 11.2904 21.5888 11.3419 21.556C11.3935 21.5278 11.4263 21.4669 11.4263 21.406L11.4357 16.9527ZM27.1488 12.0916V20.3606C27.1488 20.4825 27.0831 20.5997 26.9753 20.6606L24.1018 22.3201C23.994 22.381 23.8627 22.381 23.7549 22.3201L20.8813 20.6606C20.7735 20.5997 20.7079 20.4825 20.7079 20.3606V17.0417C20.7079 16.9199 20.7735 16.8027 20.8813 16.7417L23.7549 15.0823C23.8627 15.0214 23.994 15.0214 24.1018 15.0823L24.819 15.4948C24.8987 15.5417 25.0018 15.4807 25.0018 15.3917V10.9853C25.0018 10.854 25.1424 10.7696 25.2596 10.8353L26.9706 11.7915C27.0785 11.8478 27.1488 11.965 27.1488 12.0916ZM24.9924 18.134C24.9924 18.1012 24.9737 18.073 24.9503 18.059L23.9658 17.4871C23.9377 17.473 23.9049 17.473 23.8768 17.4871L22.8924 18.059C22.8642 18.073 22.8502 18.1012 22.8502 18.134V19.2731C22.8502 19.3059 22.8689 19.334 22.8924 19.3481L23.8768 19.9153C23.9049 19.9293 23.9377 19.9293 23.9612 19.9153L24.9456 19.3481C24.9737 19.334 24.9878 19.3059 24.9878 19.2731V18.134H24.9924ZM34.8272 18.1012C34.935 18.0402 35.0006 17.923 35.0006 17.8011V16.9995C35.0006 16.8777 34.935 16.7605 34.8272 16.6995L31.9724 15.0401C31.8646 14.9792 31.7333 14.9792 31.6255 15.0401L28.752 16.6995C28.6441 16.7605 28.5785 16.8777 28.5785 16.9995V20.3184C28.5785 20.445 28.6441 20.5575 28.752 20.6184L31.6067 22.2451C31.7099 22.306 31.8411 22.306 31.9489 22.2451L33.674 21.2841C33.7912 21.2185 33.7912 21.0497 33.674 20.9841L30.7817 19.3246C30.7255 19.2918 30.6926 19.2356 30.6926 19.1746V18.134C30.6926 18.073 30.7255 18.0168 30.7817 17.984L31.6818 17.4636C31.7333 17.4308 31.8036 17.4308 31.8552 17.4636L32.7552 17.984C32.8068 18.0168 32.8443 18.073 32.8443 18.134V18.9496C32.8443 19.0809 32.9896 19.1653 33.1068 19.0996L34.8272 18.1012ZM31.2036 18.2652C31.1849 18.2793 31.1708 18.298 31.1708 18.3215V18.959C31.1708 18.9824 31.1849 19.0059 31.2036 19.0152L31.7568 19.334C31.7755 19.3481 31.8036 19.3481 31.8224 19.334L32.3755 19.0152C32.3943 19.0012 32.4083 18.9824 32.4083 18.959V18.3215C32.4083 18.298 32.3943 18.2746 32.3755 18.2652L31.8224 17.9465C31.8036 17.9324 31.7755 17.9324 31.7568 17.9465L31.2036 18.2652ZM19.2875 20.3044V17.0042C19.2875 16.8824 19.2125 16.7652 19.1047 16.7042L16.2406 15.0542C16.1421 14.9979 16.0062 14.9885 15.8937 15.0542L13.0295 16.7042C12.9217 16.7652 12.8467 16.8777 12.8467 17.0042V20.3044C12.8467 20.4356 12.9357 20.5481 13.0342 20.6044L15.903 22.2544C16.0155 22.3201 16.1468 22.3154 16.2499 22.2544L19.1094 20.6044C19.1938 20.5575 19.2547 20.4778 19.2782 20.384C19.2829 20.3606 19.2875 20.3325 19.2875 20.3044ZM15.8046 14.4495L15.7671 14.4729H15.8187L15.8046 14.4495ZM19.3766 20.5528L19.3579 20.52V20.5622L19.3766 20.5528Z" fill="#1282A2"/>
</svg>
