<svg width="40" height="40" viewBox="0 0 40 40" fill="none" xmlns="http://www.w3.org/2000/svg">
<path d="M20 12.8983C28.0344 12.8983 34.2125 16.2827 34.2125 19.9999C34.2125 23.7171 28.0297 27.1015 20 27.1015C11.9656 27.1015 5.7875 23.7171 5.7875 19.9999C5.7875 16.2827 11.9703 12.8983 20 12.8983ZM20 12.1108C11.7172 12.1108 5 15.6405 5 19.9999C5 24.3593 11.7172 27.889 20 27.889C28.2828 27.889 35 24.3593 35 19.9999C35 15.6405 28.2828 12.1108 20 12.1108ZM15.2281 19.3671C14.8578 21.2655 13.55 21.0687 11.9422 21.0687L12.5844 17.7593C14.3656 17.7593 15.575 17.5671 15.2281 19.3671ZM9.56563 24.4202H11.2859L11.6938 22.3202C13.6203 22.3202 14.8156 22.4608 15.9219 21.4249C17.1453 20.2999 17.4641 18.2983 16.5922 17.2952C16.1375 16.7702 15.4063 16.5124 14.4125 16.5124H11.0984L9.56563 24.4202ZM18.2703 14.4077H19.9813L19.5734 16.5077C21.05 16.5077 22.4188 16.3999 23.0797 17.0093C23.7734 17.6468 23.4406 18.4624 22.6906 22.3108H20.9562C21.6781 18.589 21.8141 18.2796 21.5516 17.9983C21.2984 17.7265 20.7219 17.7827 19.3297 17.7827L18.4484 22.3108H16.7375L18.2703 14.4077ZM28.6719 19.3671C28.2969 21.2937 26.9516 21.0687 25.3859 21.0687L26.0281 17.7593C27.8188 17.7593 29.0188 17.5671 28.6719 19.3671ZM23.0094 24.4202H24.7344L25.1422 22.3202C27.1672 22.3202 28.2875 22.4374 29.3703 21.4249C30.5938 20.2999 30.9125 18.2983 30.0406 17.2952C29.5859 16.7702 28.8547 16.5124 27.8609 16.5124H24.5469L23.0094 24.4202Z" fill="#1282A2"/>
</svg>
