<svg width="40" height="40" viewBox="0 0 40 40" fill="none" xmlns="http://www.w3.org/2000/svg">
<path d="M27.9196 16.1514C27.6559 16.0635 27.3923 15.9805 27.1286 15.9023C27.1725 15.7217 27.2116 15.541 27.2507 15.3604C27.8512 12.4504 27.4557 10.1116 26.1228 9.34019C24.8387 8.60293 22.7441 9.36949 20.625 11.2151C20.4151 11.3957 20.21 11.5862 20.0147 11.7766C19.8829 11.6496 19.7462 11.5227 19.6095 11.4006C17.3879 9.42808 15.1615 8.59805 13.8285 9.37437C12.5493 10.1165 12.1685 12.3186 12.7055 15.0723C12.7592 15.3457 12.8178 15.6143 12.8862 15.8877C12.5737 15.9756 12.2661 16.0732 11.978 16.1758C9.37075 17.079 7.50073 18.5047 7.50073 19.9793C7.50073 21.5026 9.49281 23.0309 12.2026 23.9586C12.4223 24.0318 12.6421 24.105 12.8667 24.1685C12.7934 24.4615 12.7299 24.7495 12.6714 25.0474C12.1587 27.7572 12.5591 29.9055 13.8383 30.6428C15.1566 31.4044 17.3733 30.6232 19.5313 28.7337C19.7022 28.5823 19.8731 28.4261 20.044 28.2601C20.2588 28.47 20.4834 28.6702 20.708 28.8655C22.7978 30.6623 24.8631 31.3898 26.1374 30.6525C27.4557 29.8909 27.8854 27.5814 27.3288 24.7691C27.2848 24.5542 27.236 24.3345 27.1823 24.1099C27.3385 24.066 27.4899 24.0171 27.6413 23.9683C30.4585 23.0358 32.4994 21.527 32.4994 19.9793C32.4994 18.4999 30.5757 17.0644 27.9196 16.1514ZM21.3135 12.0061C23.1298 10.4241 24.824 9.80404 25.5955 10.2483C26.4206 10.722 26.738 12.6359 26.2204 15.1504C26.1863 15.3164 26.1521 15.4776 26.1081 15.6387C25.0242 15.3946 23.9256 15.2188 22.8222 15.1211C22.1874 14.213 21.4941 13.3439 20.7422 12.5285C20.9326 12.3478 21.1182 12.177 21.3135 12.0061ZM15.6644 22.5133C15.9134 22.9381 16.1673 23.3629 16.4358 23.7779C15.6741 23.6949 14.9173 23.5728 14.1703 23.4117C14.3851 22.7086 14.6537 21.9811 14.9662 21.239C15.1908 21.6686 15.4202 22.0934 15.6644 22.5133ZM14.1849 16.6396C14.888 16.4834 15.6351 16.3564 16.4114 16.2588C16.1526 16.664 15.8987 17.079 15.6595 17.4989C15.4202 17.914 15.1859 18.3387 14.9662 18.7684C14.6586 18.0409 14.3998 17.328 14.1849 16.6396ZM15.5228 20.0037C15.845 19.3299 16.1966 18.6708 16.5676 18.0214C16.9387 17.372 17.3391 16.7421 17.759 16.1221C18.4914 16.0684 19.2384 16.0391 20.0001 16.0391C20.7617 16.0391 21.5137 16.0684 22.2412 16.1221C22.6562 16.7373 23.0517 17.3671 23.4276 18.0116C23.8036 18.6561 24.1551 19.3152 24.4871 19.9842C24.16 20.6579 23.8085 21.322 23.4325 21.9762C23.0614 22.6256 22.6659 23.2555 22.2509 23.8804C21.5234 23.9341 20.7666 23.9586 20.0001 23.9586C19.2335 23.9586 18.4914 23.9341 17.7736 23.8902C17.3488 23.2701 16.9485 22.6354 16.5725 21.986C16.1966 21.3366 15.8499 20.6775 15.5228 20.0037ZM24.3407 22.5036C24.5897 22.0739 24.824 21.6393 25.0535 21.1999C25.366 21.9079 25.6394 22.6256 25.8787 23.3629C25.1219 23.5338 24.3553 23.6656 23.5839 23.7535C23.8475 23.3434 24.0965 22.9235 24.3407 22.5036ZM25.0437 18.7684C24.8143 18.3387 24.5799 17.9091 24.3358 17.4892C24.0965 17.0742 23.8475 16.664 23.5887 16.2588C24.3748 16.3564 25.1267 16.4882 25.8298 16.6494C25.6052 17.372 25.3416 18.0751 25.0437 18.7684ZM20.0098 13.2755C20.5225 13.8321 21.0059 14.418 21.4551 15.0235C20.4883 14.9795 19.5167 14.9795 18.5499 15.0235C19.0284 14.3936 19.5216 13.8077 20.0098 13.2755ZM14.3461 10.2825C15.1663 9.80404 16.9875 10.4876 18.9064 12.1867C19.0284 12.2941 19.1505 12.4113 19.2774 12.5285C18.5207 13.3439 17.8224 14.213 17.1828 15.1211C16.0794 15.2188 14.9857 15.3897 13.9018 15.6289C13.8383 15.3799 13.7846 15.126 13.7309 14.8721C13.2719 12.509 13.5746 10.7268 14.3461 10.2825ZM13.1498 23.1529C12.9448 23.0943 12.7446 23.0309 12.5444 22.9625C11.5044 22.6354 10.3228 22.1178 9.4684 21.4392C8.97526 21.0974 8.64325 20.5701 8.55048 19.9793C8.55048 19.0858 10.0934 17.9433 12.3198 17.1669C12.5981 17.0693 12.8813 16.9814 13.1645 16.8984C13.4965 17.9579 13.8969 18.9979 14.3607 20.0037C13.892 21.0241 13.4867 22.0788 13.1498 23.1529ZM18.8429 27.9378C18.0373 28.6751 17.1047 29.261 16.0891 29.6614C15.5472 29.9201 14.9222 29.9446 14.3656 29.7248C13.5893 29.2757 13.267 27.5521 13.7065 25.2329C13.7602 24.9595 13.8188 24.6861 13.8871 24.4175C14.9808 24.6519 16.0843 24.813 17.2024 24.896C17.8469 25.809 18.5548 26.683 19.3116 27.5033C19.1554 27.6546 18.9991 27.8011 18.8429 27.9378ZM20.0391 26.7514C19.5411 26.2143 19.0431 25.6186 18.5597 24.979C19.0284 24.9985 19.5118 25.0083 20.0001 25.0083C20.503 25.0083 20.9961 24.9985 21.4844 24.9741C21.0352 25.5942 20.5518 26.185 20.0391 26.7514ZM26.4206 28.2161C26.3767 28.8118 26.0837 29.3684 25.615 29.7444C24.8387 30.1936 23.1835 29.6077 21.3965 28.0745C21.1914 27.8988 20.9863 27.7084 20.7764 27.5131C21.5234 26.6879 22.2119 25.8139 22.8368 24.896C23.9549 24.8032 25.0682 24.6323 26.1667 24.3833C26.2156 24.5835 26.2595 24.7837 26.2986 24.979C26.5378 26.0336 26.5769 27.1322 26.4206 28.2161ZM27.3092 22.9674C27.1725 23.0113 27.0358 23.0553 26.8942 23.0943C26.5525 22.0299 26.1326 20.99 25.6492 19.9793C26.1179 18.9832 26.5134 17.9579 26.8454 16.9081C27.0993 16.9814 27.3434 17.0595 27.5778 17.1376C29.8531 17.9188 31.4496 19.0809 31.4496 19.9695C31.4496 20.9265 29.7456 22.1618 27.3092 22.9674ZM20.0001 22.235C21.2354 22.235 22.2363 21.2341 22.2363 19.9988C22.2363 18.7635 21.2354 17.7626 20.0001 17.7626C18.7648 17.7626 17.7639 18.7635 17.7639 19.9988C17.7639 21.2341 18.7648 22.235 20.0001 22.235Z" fill="#1282A2"/>
</svg>
