<svg width="40" height="40" viewBox="0 0 40 40" fill="none" xmlns="http://www.w3.org/2000/svg">
<path d="M19.2435 25.1203C19.2185 25.1653 19.231 25.1453 19.2435 25.1203V25.1203ZM29.623 21.4956C28.7851 21.4953 27.9583 21.6877 27.2066 22.058C26.9607 21.5622 26.7066 21.1289 26.6649 20.8039C26.6149 20.4248 26.5608 20.1998 26.6191 19.7499C26.6774 19.2999 26.9399 18.6625 26.9358 18.6166C26.9316 18.5708 26.8774 18.3416 26.34 18.3375C25.8025 18.3333 25.34 18.4416 25.2863 18.5833C25.1914 18.8422 25.1175 19.1083 25.0655 19.3791C24.9697 19.8665 23.991 21.608 23.4369 22.5163C23.2536 22.1622 23.0994 21.8497 23.0661 21.5997C23.0161 21.2206 22.9619 20.9956 23.0202 20.5456C23.0786 20.0957 23.341 19.4582 23.3369 19.4124C23.3327 19.3666 23.2785 19.1374 22.7415 19.1332C22.2045 19.1291 21.7416 19.2374 21.6874 19.3791C21.6333 19.5207 21.5749 19.854 21.4666 20.1748C21.3583 20.4956 20.0546 23.3954 19.7134 24.1495C19.5384 24.5328 19.3884 24.8411 19.2801 25.0494C19.2635 25.0828 19.251 25.1036 19.2426 25.1203C19.2551 25.0994 19.2635 25.0786 19.2635 25.0869C19.1718 25.2661 19.1176 25.3661 19.1176 25.3661V25.3702C19.0468 25.5036 18.9677 25.6244 18.9302 25.6244C18.9052 25.6244 18.851 25.2744 18.9427 24.7953C19.1385 23.787 19.6009 22.2205 19.5968 22.1663C19.5926 22.1372 19.6843 21.8664 19.2926 21.7205C18.9135 21.583 18.776 21.8122 18.7427 21.8122C18.7093 21.8122 18.6843 21.8955 18.6843 21.8955C18.6843 21.8955 19.1051 20.129 17.8765 20.129C17.1099 20.129 16.0433 20.9706 15.5192 21.733C15.19 21.9122 14.4776 22.2997 13.7277 22.7121C13.4402 22.8704 13.1444 23.0329 12.8652 23.1871C12.8444 23.1662 12.8277 23.1454 12.8069 23.1246C11.3158 21.533 8.56267 20.4081 8.67932 18.2708C8.72099 17.4917 8.9918 15.446 13.9735 12.9629C18.0565 10.9297 21.3208 11.488 21.8828 12.7296C22.6911 14.5003 20.1376 17.7959 15.8975 18.2708C14.2814 18.45 13.4319 17.825 13.2194 17.5917C12.9986 17.3459 12.9652 17.3334 12.8819 17.3792C12.7444 17.4542 12.8319 17.6709 12.8819 17.8C13.0069 18.1292 13.5277 18.7124 14.4147 19.0041C15.1938 19.2582 17.0886 19.3999 19.3797 18.5125C21.9537 17.5209 23.9572 14.7586 23.3698 12.4463C22.7715 10.0965 18.8752 9.32571 15.1909 10.6339C12.9956 11.413 10.6217 12.6379 8.91389 14.2336C6.8853 16.1335 6.56075 17.7875 6.69407 18.4791C7.16861 20.9331 10.5508 22.533 11.9045 23.7162C11.8378 23.7537 11.7753 23.787 11.717 23.8204C11.0383 24.1578 8.45976 25.5077 7.81439 26.9326C7.08529 28.5491 7.93522 29.7074 8.49309 29.8657C10.2342 30.349 12.017 29.4782 12.9748 28.0492C13.9326 26.6201 13.8164 24.7536 13.3748 23.9037C13.3706 23.8912 13.3623 23.8829 13.3581 23.8704C13.5331 23.7662 13.7122 23.662 13.8914 23.5579C14.2368 23.3537 14.5743 23.1663 14.8701 23.0038C14.7034 23.4537 14.5826 23.9953 14.5201 24.7786C14.4451 25.6952 14.8242 26.8826 15.3159 27.3492C15.5325 27.5534 15.7946 27.5576 15.9571 27.5576C16.532 27.5576 16.7903 27.0826 17.0774 26.516C17.4315 25.8244 17.744 25.0203 17.744 25.0203C17.744 25.0203 17.3524 27.1951 18.4231 27.1951C18.8143 27.1951 19.206 26.691 19.3814 26.4327V26.4368C19.3814 26.4368 19.3897 26.4202 19.4105 26.3868C19.4522 26.3243 19.473 26.2868 19.473 26.2868V26.2743C19.6313 26.0035 19.9772 25.3827 20.4975 24.3578C21.1725 23.0329 21.8178 21.3789 21.8178 21.3789C21.8802 21.7425 21.9665 22.1016 22.0761 22.4538C22.1928 22.8496 22.4386 23.2829 22.6344 23.7037C22.4761 23.9204 22.3803 24.0453 22.3803 24.0453C22.3806 24.0485 22.3821 24.0515 22.3845 24.0537C22.2595 24.2203 22.1178 24.3995 21.972 24.5745C21.4391 25.2078 20.8054 25.9327 20.7221 26.141C20.6221 26.3868 20.6471 26.5701 20.8387 26.7118C20.9804 26.8201 21.2304 26.8368 21.4924 26.816C21.9716 26.7826 22.309 26.666 22.4715 26.591C22.7711 26.4836 23.0542 26.3349 23.3127 26.1493C23.8335 25.766 24.1501 25.2161 24.121 24.4911C24.1043 24.0912 23.9752 23.6912 23.8168 23.3162C23.8627 23.2496 23.9127 23.1787 23.9585 23.1079C24.783 21.9039 25.4205 20.5823 25.4205 20.5823C25.4828 20.9459 25.5691 21.305 25.6788 21.6572C25.7788 21.9947 25.9742 22.3655 26.1533 22.728C25.3788 23.3571 24.8997 24.0862 24.733 24.5653C24.4247 25.4527 24.6664 25.8527 25.1205 25.9444C25.3246 25.986 25.6163 25.8902 25.8329 25.7985C26.1547 25.6914 26.4581 25.5354 26.7324 25.3361C27.2532 24.9528 27.7569 24.4153 27.7236 23.6862C27.7111 23.3571 27.6194 23.0279 27.4986 22.7113C28.1527 22.4363 29.0023 22.2863 30.0855 22.4113C32.4053 22.6821 32.8594 24.132 32.7719 24.7361C32.6845 25.3402 32.197 25.6777 32.0345 25.7777C31.872 25.8777 31.822 25.9152 31.8345 25.9902C31.8554 26.0985 31.9303 26.0943 32.0678 26.0693C32.2595 26.036 33.284 25.5777 33.3298 24.457C33.3965 23.0404 32.0345 21.4822 29.6218 21.4947L29.623 21.4956ZM11.742 27.5242C10.9758 28.3617 9.90089 28.6783 9.43884 28.4117C8.94305 28.1233 9.13887 26.8909 10.0842 25.9985C10.6592 25.4569 11.4004 24.9569 11.892 24.6486C12.0045 24.582 12.167 24.482 12.3669 24.3612C12.4003 24.3403 12.4169 24.332 12.4169 24.332C12.4544 24.307 12.4961 24.2862 12.5378 24.2612C12.8831 25.5277 12.5503 26.6443 11.742 27.5234V27.5242ZM17.3399 23.7162C17.0732 24.3703 16.5112 26.0368 16.1695 25.9494C15.8779 25.8744 15.6988 24.6036 16.1112 23.3537C16.3195 22.7246 16.7612 21.9747 17.0236 21.683C17.444 21.2122 17.9065 21.0623 18.0148 21.2497C18.1606 21.4956 17.5065 23.3079 17.3399 23.7162ZM21.9645 25.9244C21.852 25.9827 21.7478 26.0202 21.6978 25.991C21.6603 25.9702 21.7437 25.891 21.7437 25.891C21.7437 25.891 22.3228 25.2702 22.5519 24.9869C22.6853 24.8203 22.8394 24.6245 23.0057 24.4078C23.0057 24.4286 23.0098 24.4495 23.0098 24.4745C23.0044 25.2203 22.2882 25.7244 21.9632 25.9244H21.9645ZM25.53 25.1119C25.4467 25.0536 25.4592 24.8578 25.7383 24.2495C25.8467 24.012 26.0962 23.612 26.53 23.2287C26.579 23.3738 26.6057 23.5256 26.6091 23.6787C26.6049 24.6161 25.9342 24.9661 25.5304 25.1119H25.53Z" fill="#1282A2"/>
</svg>
