<svg width="40" height="40" viewBox="0 0 40 40" fill="none" xmlns="http://www.w3.org/2000/svg">
<path d="M10.1306 14.9976C9.38758 14.9976 8.75192 15.1097 8.22431 15.3339C7.70109 15.5581 7.29879 15.8859 7.01739 16.3167C6.7404 16.7432 6.6019 17.2024 6.6019 17.6948C6.6019 18.4598 6.89868 19.1087 7.49224 19.6407C7.91433 20.0188 8.64893 20.3374 9.69535 20.5968C10.5088 20.7991 11.0298 20.9396 11.2584 21.0188C11.5926 21.1375 11.8254 21.2785 11.9573 21.4412C12.0936 21.5995 12.1616 21.7928 12.1616 22.0214C12.1616 22.3775 12.0013 22.6895 11.6803 22.9577C11.3638 23.2215 10.8909 23.3534 10.2622 23.3534C9.66864 23.3534 9.19632 23.2043 8.84458 22.9053C8.49724 22.6063 8.2664 22.1381 8.15209 21.5005L6.25269 21.685C6.38019 22.7666 6.77134 23.591 7.42646 24.1582C8.08157 24.721 9.02012 25.0026 10.2424 25.0026C11.0822 25.0026 11.7838 24.8859 12.3466 24.6528C12.9094 24.4154 13.3447 24.0547 13.6524 23.5711C13.9602 23.0874 14.1139 22.5689 14.1139 22.015C14.1139 21.4038 13.9841 20.8914 13.7247 20.4781C13.4696 20.0604 13.1135 19.7327 12.6562 19.4953C12.2034 19.2535 11.5023 19.0206 10.5526 18.7964C9.60286 18.5721 9.00473 18.3565 8.75851 18.1499C8.56506 17.9872 8.46866 17.7919 8.46866 17.5632C8.46866 17.3126 8.57165 17.1122 8.7783 16.9627C9.09926 16.7297 9.54367 16.6135 10.1108 16.6135C10.6604 16.6135 11.0714 16.7231 11.344 16.943C11.621 17.1584 11.8011 17.5145 11.8846 18.0114L13.8369 17.9258C13.8062 17.0377 13.483 16.3274 12.8675 15.7954C12.2563 15.2634 11.3441 14.9976 10.1306 14.9976ZM29.0455 14.9976C28.2585 14.9976 27.5635 15.1249 26.9611 15.3799C26.5082 15.569 26.0907 15.8592 25.7082 16.2505C25.3301 16.6418 25.0313 17.0837 24.8114 17.5761C24.5168 18.2444 24.3692 19.0713 24.3692 20.0562C24.3692 21.5951 24.7938 22.804 25.6424 23.6834C26.491 24.5583 27.634 24.9956 29.0717 24.9956C30.4919 24.9956 31.6262 24.5563 32.4748 23.6769C33.3234 22.7932 33.7475 21.5706 33.7475 20.0097C33.7475 18.4357 33.3188 17.2069 32.4615 16.3232C31.6085 15.4394 30.4701 14.9976 29.0455 14.9976ZM15.7561 15.1623V24.8309H23.1099V23.2021H17.7085V20.5706H22.5623V18.9413H17.7085V16.798H22.9249V15.1623H15.7561ZM29.0653 16.666C29.8699 16.666 30.5137 16.9389 30.9973 17.4841C31.4854 18.0293 31.7294 18.8557 31.7294 19.9637C31.7294 21.0849 31.4788 21.927 30.9776 22.4898C30.4807 23.0482 29.8435 23.3272 29.0653 23.3272C28.2871 23.3272 27.6448 23.0457 27.1392 22.4829C26.6336 21.9157 26.3809 21.0847 26.3809 19.9899C26.3809 18.8775 26.627 18.0465 27.1194 17.497C27.6118 16.943 28.2607 16.666 29.0653 16.666Z" fill="#1282A2"/>
</svg>
