<svg width="40" height="40" viewBox="0 0 40 40" fill="none" xmlns="http://www.w3.org/2000/svg">
<path d="M8.63664 28.7264C6.39631 28.5887 4.57324 28.0597 3.47232 27.2278C2.94254 26.8275 2.63119 26.3547 2.54449 25.8191C2.48407 25.4457 2.48571 14.4773 2.54623 14.149C2.60769 13.8156 2.7087 13.5958 2.94426 13.2827C3.41535 12.6564 4.48079 12.0694 5.81303 11.702C7.67049 11.1897 10.2582 11.1052 12.3731 11.4878C14.5025 11.873 15.9806 12.664 16.4782 13.6845L16.6192 13.9735V19.9985V26.0235L16.4863 26.3046C15.9945 27.3456 14.4359 28.1601 12.2245 28.5317C11.1251 28.7165 9.71807 28.7928 8.63664 28.7264ZM11.5027 27.3892C13.3622 27.1322 14.7654 26.5864 15.2692 25.924L15.409 25.7401V24.828C15.409 24.3263 15.3993 23.9158 15.3874 23.9158C15.3755 23.9158 15.2083 24.0002 15.0159 24.1034C14.1191 24.5842 12.7202 24.9557 11.2055 25.1153C10.4229 25.1978 8.53283 25.1857 7.7662 25.0933C6.38872 24.9274 5.11389 24.5844 4.26274 24.1507C4.00917 24.0215 3.79091 23.9158 3.77771 23.9157C3.72829 23.9156 3.7953 25.7665 3.84807 25.8588C3.92858 25.9997 4.31494 26.3317 4.57871 26.4867C5.32576 26.9258 6.79692 27.3191 8.16957 27.4466C8.80965 27.5061 10.9201 27.4697 11.5027 27.3892ZM10.5049 23.9164C12.0916 23.8075 13.4029 23.5135 14.3139 23.0624C14.7165 22.863 14.8616 22.7664 15.1046 22.536C15.4105 22.246 15.409 22.2527 15.409 21.1148V20.0979L14.8889 20.3573C13.5258 21.037 11.7928 21.3706 9.61322 21.3727C7.28666 21.3749 5.34196 20.9765 4.01909 20.2267L3.77494 20.0883V21.1422V22.1961L3.88086 22.3401C4.6547 23.3919 7.67456 24.1105 10.5049 23.9164ZM11.163 20.0613C13.2365 19.8294 14.7584 19.2684 15.2827 18.5426L15.409 18.3677V17.3309C15.409 16.7607 15.3991 16.2941 15.387 16.2941C15.3748 16.2941 15.289 16.3422 15.1962 16.4009C14.5678 16.7987 13.2568 17.213 12.0407 17.3981C11.0973 17.5417 10.3674 17.5833 9.20985 17.5596C7.13239 17.5172 5.53067 17.1857 4.22081 16.5273L3.77494 16.3032V17.3227C3.77494 18.487 3.76906 18.4627 4.1308 18.7942C4.75369 19.3651 6.21815 19.8606 7.80866 20.0386C8.03052 20.0634 8.26936 20.0904 8.33942 20.0986C8.73197 20.1445 10.6452 20.1192 11.163 20.0613ZM10.7596 16.2924C12.9569 16.1302 14.9172 15.4329 15.3208 14.6698C15.4544 14.4172 15.4209 14.2389 15.1901 13.976C14.6527 13.3639 13.3075 12.8632 11.5027 12.6037C11.0779 12.5427 10.6923 12.5274 9.57076 12.5275C8.05175 12.5275 7.47635 12.5826 6.44994 12.8263C5.4367 13.0669 4.55217 13.4503 4.14067 13.8275C3.66451 14.2639 3.64853 14.5589 4.07952 14.9564C5.13257 15.9278 7.98142 16.4976 10.7596 16.2924ZM33.1758 22.7287V15.7079H34.6564V21.4995H37.5V22.7287H33.1758ZM31.7246 19.2084C31.7246 19.9951 31.584 20.6768 31.303 21.2537C31.0219 21.8306 30.5872 22.2501 29.9988 22.5123L31.6854 24.4003H29.7831L28.4986 22.827H28.3907C27.6324 22.827 27.0049 22.6762 26.5081 22.3747C26.0178 22.0731 25.6517 21.6503 25.4099 21.1062C25.1746 20.5621 25.0569 19.9263 25.0569 19.1986C25.0569 18.471 25.1746 17.8384 25.4099 17.3008C25.6517 16.7633 26.0178 16.347 26.5081 16.0521C27.0049 15.7505 27.6357 15.5997 28.4005 15.5997C29.1588 15.5997 29.7831 15.7505 30.2734 16.0521C30.7637 16.347 31.1265 16.7666 31.3618 17.3107C31.6037 17.8482 31.7246 18.4808 31.7246 19.2084ZM26.616 19.2084C26.616 19.9426 26.7565 20.5228 27.0376 20.9489C27.3187 21.3684 27.7697 21.5782 28.3907 21.5782C29.0248 21.5782 29.4791 21.3684 29.7537 20.9489C30.0282 20.5228 30.1655 19.9426 30.1655 19.2084C30.1655 18.4743 30.0282 17.8974 29.7537 17.4778C29.4791 17.0517 29.0281 16.8387 28.4005 16.8387C27.773 16.8387 27.3187 17.0517 27.0376 17.4778C26.7565 17.8974 26.616 18.4743 26.616 19.2084ZM24.0959 20.7817C24.0959 21.4045 23.8704 21.9027 23.4194 22.2763C22.9749 22.6434 22.3408 22.827 21.5171 22.827C20.7784 22.827 20.1182 22.686 19.5364 22.4042V21.0177C19.8698 21.1619 20.213 21.2963 20.566 21.4209C20.9255 21.5389 21.2818 21.5979 21.6348 21.5979C22.0008 21.5979 22.2591 21.529 22.4094 21.3914C22.5663 21.2471 22.6447 21.0669 22.6447 20.8506C22.6447 20.6736 22.5826 20.5228 22.4584 20.3982C22.3408 20.2737 22.1806 20.159 21.978 20.0541C21.7753 19.9426 21.5433 19.8246 21.2818 19.7001C21.1184 19.6214 20.9419 19.5297 20.7523 19.4248C20.5627 19.3133 20.3797 19.1789 20.2032 19.0216C20.0332 18.8577 19.8927 18.6611 19.7815 18.4316C19.6704 18.2022 19.6149 17.9269 19.6149 17.6057C19.6149 16.9764 19.8273 16.488 20.2522 16.1406C20.6771 15.7866 21.2556 15.6096 21.9878 15.6096C22.3538 15.6096 22.7003 15.6522 23.0272 15.7374C23.354 15.8226 23.7005 15.9439 24.0665 16.1012L23.5861 17.2615C23.2657 17.1304 22.9781 17.0288 22.7232 16.9567C22.4682 16.8846 22.2068 16.8485 21.9387 16.8485C21.6577 16.8485 21.4419 16.9141 21.2916 17.0452C21.1412 17.1763 21.0661 17.3467 21.0661 17.5565C21.0661 17.8056 21.1772 18.0023 21.3994 18.1465C21.6217 18.2907 21.9518 18.4677 22.3898 18.6775C22.7493 18.8479 23.0533 19.0249 23.3017 19.2084C23.5566 19.392 23.7528 19.6083 23.89 19.8574C24.0273 20.1065 24.0959 20.4146 24.0959 20.7817Z" fill="#12728D"/>
</svg>
