<svg width="40" height="40" viewBox="0 0 40 40" fill="none" xmlns="http://www.w3.org/2000/svg">
<path d="M20 5C11.7137 5 5 11.7137 5 20C5 28.2863 11.7137 35 20 35C28.2863 35 35 28.2863 35 20C35 11.7137 28.2863 5 20 5ZM28.0891 13.6819C27.3954 13.7067 26.9157 13.2917 26.8933 12.6615C26.877 12.1062 27.2974 11.8486 27.2883 11.5214C27.2744 11.1252 26.6738 11.1089 26.5099 11.1179C24.1038 11.196 23.571 14.5655 22.948 18.004C24.2442 18.1946 25.1647 17.9605 25.6782 17.6278C26.404 17.1591 25.4762 16.677 25.5923 16.1423C25.8343 15.044 27.5611 14.9931 27.5278 16.4629C27.506 17.5431 25.9601 18.9917 22.8343 18.6222C22.1835 22.2222 21.7244 25.5778 19.3141 28.4036C17.5601 30.4879 15.7819 30.8121 14.9847 30.8387C13.4937 30.8901 12.5048 30.0942 12.4698 29.0339C12.4359 28.0056 13.3437 27.4456 13.9401 27.4256C15.2641 27.3802 15.7619 28.9782 14.8401 29.4821C14.1089 30.0694 14.8468 30.2448 14.9641 30.2411C15.5944 30.2194 16.0129 29.9079 16.3056 29.6968C17.7573 28.4871 18.3161 26.3786 19.0486 22.5385C19.544 19.5349 20.0768 17.8208 20.1512 17.5788C19.1272 16.8077 18.5133 15.852 17.1361 15.4788C16.1919 15.223 15.6167 15.4407 15.2121 15.9524C14.7331 16.5573 14.8921 17.3435 15.3554 17.8093L16.1194 18.656C17.0575 19.7405 17.571 20.5837 17.3774 21.7177C17.0714 23.528 14.9145 24.9173 12.3645 24.1335C10.1871 23.4615 9.78185 21.9222 10.0431 21.0718C10.4974 19.6111 12.6052 20.3629 12.1371 21.8944C11.9683 22.4145 11.8395 22.4194 11.7573 22.6849C11.4815 23.5782 14.2885 24.4026 14.8419 22.6008C15.1123 21.7226 14.5214 21.2877 13.4962 20.1905C11.7742 18.2702 12.5284 16.2294 13.6746 15.3718C16.8687 12.9917 19.7544 16.4315 20.3629 16.9329C22.6111 10.3401 26.4433 10.5542 26.5583 10.55C28.08 10.501 29.231 11.1905 29.2698 12.2829C29.2849 12.748 29.0175 13.6492 28.0891 13.6819Z" fill="#1282A2"/>
</svg>
