<svg width="40" height="40" viewBox="0 0 40 40" fill="none" xmlns="http://www.w3.org/2000/svg">
<path d="M7.5 20V7.5H20H32.5V20V32.5H20H7.5V20ZM28.4379 30.1676C29.8434 29.6247 30.6047 28.3881 30.4636 26.8772C30.3196 25.3349 29.6627 24.6273 27.3322 23.5039C26.4759 23.0912 25.711 22.6759 25.6323 22.5811C25.3624 22.2559 25.3485 21.6924 25.6024 21.3696C26.0734 20.7709 26.9916 20.8347 27.6181 21.5098L28.014 21.9364L28.9279 21.3246L29.8417 20.7127L29.625 20.4119C29.237 19.8735 28.6779 19.4055 28.1111 19.1446C27.6488 18.9318 27.3691 18.8889 26.4444 18.889C25.4549 18.8891 25.2726 18.9214 24.7778 19.1846C23.6187 19.8012 23.062 20.7158 23.058 22.01C23.0559 22.6716 23.1107 22.9083 23.3999 23.487C23.836 24.3596 24.4356 24.8218 26.2194 25.6604C27.7837 26.3958 28.0556 26.6145 28.0556 27.1378C28.0556 27.9157 27.5251 28.3133 26.4858 28.3142C25.7464 28.3151 24.9958 27.9356 24.5988 27.3607C24.4618 27.1623 24.3361 26.9817 24.3193 26.9593C24.2935 26.9246 22.5401 27.89 22.3938 28.0195C22.2856 28.1151 22.784 28.862 23.2308 29.2738C24.1799 30.1487 25.2796 30.5165 26.7778 30.4602C27.4826 30.4337 27.9726 30.3473 28.4379 30.1676ZM18.6111 25.7222V21.0556H20.2222H21.8333V20V18.9444H17.3889H12.9444V20V21.0556H14.5556H16.1667V25.7222V30.3889H17.3889H18.6111V25.7222Z" fill="#1282A2"/>
</svg>
