<svg width="80" height="80" viewBox="0 0 80 80" fill="none" xmlns="http://www.w3.org/2000/svg">
<path d="M40.2656 26.6577L32.7031 32.7827C31.4453 33.7983 31.2031 35.6265 32.1562 36.9312C33.1641 38.3218 35.125 38.5952 36.4766 37.5405L44.2344 31.5093C44.7812 31.0874 45.5625 31.1812 45.9922 31.728C46.4219 32.2749 46.3203 33.0562 45.7734 33.4858L44.1406 34.7515L55 44.7515V30.0015H54.9453L54.6406 29.8062L48.9688 26.1733C47.7734 25.4077 46.375 25.0015 44.9531 25.0015C43.25 25.0015 41.5938 25.5874 40.2656 26.6577ZM42.0469 36.3765L38.0078 39.5171C35.5469 41.439 31.9766 40.939 30.1328 38.4077C28.3984 36.0249 28.8359 32.6968 31.125 30.8452L37.625 25.5874C36.7188 25.2046 35.7422 25.0093 34.75 25.0093C33.2812 25.0015 31.8516 25.439 30.625 26.2515L25 30.0015V47.5015H27.2031L34.3438 54.0171C35.875 55.4155 38.2422 55.3062 39.6406 53.7749C40.0703 53.2983 40.3594 52.7437 40.5078 52.1655L41.8359 53.3843C43.3594 54.7827 45.7344 54.6812 47.1328 53.1577C47.4844 52.7749 47.7422 52.3296 47.9062 51.8687C49.4219 52.8843 51.4844 52.6733 52.7578 51.2827C54.1562 49.7593 54.0547 47.3843 52.5312 45.9858L42.0469 36.3765ZM16.25 30.0015C15.5625 30.0015 15 30.564 15 31.2515V47.5015C15 48.8843 16.1172 50.0015 17.5 50.0015H20C21.3828 50.0015 22.5 48.8843 22.5 47.5015V30.0015H16.25ZM18.75 45.0015C19.0815 45.0015 19.3995 45.1332 19.6339 45.3676C19.8683 45.602 20 45.9199 20 46.2515C20 46.583 19.8683 46.9009 19.6339 47.1354C19.3995 47.3698 19.0815 47.5015 18.75 47.5015C18.4185 47.5015 18.1005 47.3698 17.8661 47.1354C17.6317 46.9009 17.5 46.583 17.5 46.2515C17.5 45.9199 17.6317 45.602 17.8661 45.3676C18.1005 45.1332 18.4185 45.0015 18.75 45.0015ZM57.5 30.0015V47.5015C57.5 48.8843 58.6172 50.0015 60 50.0015H62.5C63.8828 50.0015 65 48.8843 65 47.5015V31.2515C65 30.564 64.4375 30.0015 63.75 30.0015H57.5ZM60 46.2515C60 45.9199 60.1317 45.602 60.3661 45.3676C60.6005 45.1332 60.9185 45.0015 61.25 45.0015C61.5815 45.0015 61.8995 45.1332 62.1339 45.3676C62.3683 45.602 62.5 45.9199 62.5 46.2515C62.5 46.583 62.3683 46.9009 62.1339 47.1354C61.8995 47.3698 61.5815 47.5015 61.25 47.5015C60.9185 47.5015 60.6005 47.3698 60.3661 47.1354C60.1317 46.9009 60 46.583 60 46.2515Z" fill="#BE8242"/>
</svg>
