<svg width="80" height="80" viewBox="0 0 80 80" fill="none" xmlns="http://www.w3.org/2000/svg">
<path d="M22.6194 24.3547C22.6194 19.1883 26.8076 15 31.9742 15H48.0257C53.1922 15 57.3805 19.1883 57.3805 24.3547C57.3805 27.6262 55.7012 30.5055 53.1576 32.1774C55.7012 33.8495 57.3805 36.7287 57.3805 40.0002C57.3805 45.1667 53.1922 49.355 48.0257 49.355H47.8226C45.4005 49.355 43.1934 48.4345 41.5321 46.9242V55.5437C41.5321 60.779 37.2343 65 32.0246 65C26.871 65 22.6194 60.8245 22.6194 55.6452C22.6194 52.3739 24.2985 49.4948 26.842 47.8228C24.2985 46.1507 22.6194 43.2715 22.6194 40.0002C22.6194 36.7287 24.2987 33.8495 26.8423 32.1774C24.2987 30.5055 22.6194 27.6262 22.6194 24.3547ZM38.4678 33.7097H31.9742C28.5 33.7097 25.6836 36.5261 25.6836 40.0002C25.6836 43.4609 28.4783 46.2689 31.9339 46.2906C31.9473 46.2905 31.9607 46.2905 31.9742 46.2905H38.4678V33.7097ZM41.5321 40.0002C41.5321 43.4743 44.3484 46.2907 47.8226 46.2907H48.0257C51.5 46.2907 54.3163 43.4743 54.3163 40.0002C54.3163 36.5261 51.5 33.7097 48.0257 33.7097H47.8226C44.3484 33.7097 41.5321 36.5261 41.5321 40.0002ZM31.9742 49.355C31.9607 49.355 31.9473 49.3549 31.9339 49.3549C28.4783 49.3765 25.6836 52.1845 25.6836 55.6452C25.6836 59.1066 28.5376 61.9357 32.0246 61.9357C35.5677 61.9357 38.4678 59.0611 38.4678 55.5437V49.355H31.9742ZM31.9742 18.0642C28.5 18.0642 25.6836 20.8806 25.6836 24.3547C25.6836 27.8289 28.5 30.6452 31.9742 30.6452H38.4678V18.0642H31.9742ZM41.5321 30.6452H48.0257C51.5 30.6452 54.3163 27.8289 54.3163 24.3547C54.3163 20.8806 51.5 18.0642 48.0257 18.0642H41.5321V30.6452Z" fill="#BE8242"/>
</svg>
