<svg width="80" height="80" viewBox="0 0 80 80" fill="none" xmlns="http://www.w3.org/2000/svg">
<path d="M37.8875 64.3679C37.3245 64.012 36.9823 63.5297 36.7924 62.8242C36.4638 61.6039 35.8597 61.128 33.9713 60.602C31.8154 60.0015 31.1584 59.7029 30.8902 59.2017C30.4516 58.3822 30.6253 57.7778 31.6283 56.6325C32.1696 56.0145 32.6698 55.336 32.7399 55.1248C33.0173 54.2891 31.2248 53.3516 26.8689 52.0542C25.9891 51.7922 24.3767 51.1377 23.2857 50.5999C21.4696 49.7046 21.302 49.5572 21.302 48.8542C21.302 48.1562 21.4822 47.9923 23.2819 47.0534C24.3709 46.4853 25.4075 45.8729 25.5855 45.6925C26.1861 45.0836 24.9975 44.5602 19.0122 42.7983C15.2608 41.694 14.0501 39.6502 15.7618 37.3111C16.4389 36.3857 28.5675 23.8506 34.1987 18.2562C36.7931 15.6788 37.6711 15.1974 39.7782 15.1974C42.1654 15.1974 42.7181 15.5996 48.8476 21.7971C60.3639 33.4412 64.1073 37.354 64.5451 38.2052C65.5623 40.183 64.8803 41.8949 62.4307 43.5119C60.8908 44.5285 59.2707 45.2047 53.8554 47.0913C51.0133 48.0815 49.6996 48.8887 50.1152 49.3894C50.2608 49.5648 51.1779 50.1824 52.1532 50.7619C54.3531 52.0688 54.6498 52.5438 54.0697 53.8302C53.6418 54.7792 51.9086 56.1477 51.1324 56.1496C50.238 56.1515 46.8991 57.6798 45.9099 58.5397L44.849 59.462L45.4158 59.9168C45.7276 60.167 46.2324 60.5495 46.5376 60.7668C47.2982 61.3084 47.0171 62.0588 45.7362 62.9064C44.1686 63.9439 42.206 64.6223 40.3739 64.76C38.9986 64.8635 38.5628 64.7948 37.8875 64.3679ZM39.8117 48.0236C39.8732 47.5902 39.7946 47.4869 39.4918 47.6031C39.2073 47.7123 39.0902 47.6039 39.0902 47.2312C39.0902 46.7572 39.0139 46.7319 38.3176 46.9746C37.6415 47.2103 37.4292 47.1557 36.6189 46.5377C35.8514 45.9523 35.6113 45.8824 35.216 46.1292C34.8299 46.3703 34.7391 46.3535 34.7391 46.041C34.7391 45.727 34.3685 45.6614 32.7556 45.6897C31.6646 45.7089 31.0329 45.7748 31.3517 45.836C31.6705 45.8973 31.871 46.0451 31.7972 46.1644C31.7234 46.2838 32.0385 46.4921 32.4973 46.6273C34.2553 47.1454 35.5077 47.4641 35.6675 47.4341C35.7589 47.4168 35.9041 47.5105 35.9903 47.6422C36.2302 48.0091 38.3702 48.7031 39.0902 48.6476C39.5394 48.613 39.7544 48.427 39.8117 48.0236ZM56.959 45.2821C57.7071 45.0361 58.2742 44.7898 58.2191 44.7348C58.0893 44.605 54.9588 45.6602 54.9588 45.8337C54.9588 45.9063 55.1028 45.9125 55.2787 45.8475C55.4547 45.7826 56.2108 45.5281 56.959 45.2821ZM18.7669 38.1729C19.1104 37.7702 19.1289 37.6983 18.8293 37.9294C18.5786 38.1228 18.343 38.1582 18.2549 38.0157C18.11 37.7812 18.804 37.3422 19.1905 37.424C19.2961 37.4463 19.3824 37.2884 19.3824 37.073C19.3824 36.7601 19.2293 36.7946 18.6199 37.2452C18.0667 37.6542 17.9291 37.8953 18.1187 38.1238C18.301 38.3435 18.2801 38.4787 18.0494 38.5713C17.8676 38.6442 17.8449 38.713 17.999 38.7241C18.1532 38.7352 18.4987 38.4872 18.7669 38.1729ZM19.989 36.131C19.9127 36.0075 20.0041 35.7167 20.1922 35.4847C20.4333 35.1873 20.4402 35.1193 20.2156 35.2542C19.6709 35.5814 19.3569 36.3555 19.7689 36.3555C19.9663 36.3555 20.0653 36.2545 19.989 36.131ZM21.2565 35.5188C21.1377 35.2091 21.0575 35.2226 20.7826 35.5987C20.378 36.1519 20.5759 36.5751 21.0536 36.1786C21.2439 36.0207 21.3352 35.7238 21.2565 35.5188ZM21.43 34.6492C21.43 34.5085 21.3792 34.3933 21.3171 34.3933C21.255 34.3933 21.1331 34.5085 21.0461 34.6492C20.9591 34.79 21.0099 34.9052 21.1589 34.9052C21.308 34.9052 21.43 34.79 21.43 34.6492ZM22.1978 33.8814C22.1978 33.7406 22.0827 33.6254 21.9419 33.6254C21.8011 33.6254 21.6859 33.7406 21.6859 33.8814C21.6859 34.0222 21.8011 34.1373 21.9419 34.1373C22.0827 34.1373 22.1978 34.0222 22.1978 33.8814ZM22.9983 33.6894C23.3167 33.2835 23.3076 33.2744 22.9017 33.5928C22.6553 33.786 22.4538 33.9875 22.4538 34.0407C22.4538 34.2514 22.664 34.1158 22.9983 33.6894ZM23.0759 32.6266C23.0086 32.5592 22.7546 32.7117 22.5117 32.9654C22.0895 33.4061 22.095 33.4116 22.6341 33.0879C22.9444 32.9015 23.1432 32.6939 23.0759 32.6266ZM24.3998 31.587C24.3852 31.3708 24.5502 31.2058 24.7664 31.2204C24.988 31.2353 25.1595 31.0398 25.1595 30.7725C25.1595 30.5116 25.1491 30.2982 25.1365 30.2982C25.124 30.2982 24.7468 30.6766 24.2985 31.1391C23.6274 31.8315 23.5667 31.9801 23.9548 31.9801C24.2195 31.9801 24.4146 31.8077 24.3998 31.587ZM40.4474 29.4499C41.6013 28.7018 42.686 28.006 42.8579 27.9037C43.0297 27.8015 43.5135 27.895 43.9329 28.1122C44.863 28.5931 44.9769 28.5993 44.9769 28.1687C44.9769 27.6584 46.193 26.6767 46.3621 27.0505C46.4377 27.2178 46.491 27.0669 46.4804 26.7149C46.4698 26.363 46.5453 25.8099 46.6482 25.4858L46.8352 24.8967L47.4417 25.4665C48.2145 26.1924 48.2432 25.6476 47.4724 24.8865L46.8965 24.3178L47.606 24.7581C48.075 25.0492 48.4518 25.1221 48.7177 24.9733C49.0506 24.787 48.8648 24.4654 47.6405 23.1081C44.7652 19.9205 42.5366 17.7146 41.7972 17.3246C40.8357 16.8174 38.8783 16.8181 37.9189 17.3256C37.2223 17.6943 30.4979 24.363 27.7269 27.4331C26.7072 28.5628 26.5291 28.9043 26.6689 29.4613C26.8178 30.0546 26.7901 30.0922 26.4262 29.7902C26.1035 29.5224 25.949 29.516 25.7062 29.7607C25.4642 30.0046 25.4887 30.0373 25.8192 29.9115C26.0513 29.8232 26.2992 29.8452 26.3701 29.9604C26.441 30.0756 28.2138 30.1355 30.3096 30.0935L34.1203 30.0173L35.2409 27.5341C35.8572 26.1683 36.4335 24.9652 36.5215 24.8603C36.6095 24.7555 37.0219 26.0502 37.438 27.7374C37.854 29.4247 38.2293 30.8061 38.2719 30.8074C38.3144 30.8084 39.2935 30.198 40.4474 29.4499ZM48.0483 24.6674C48.0483 24.5266 48.1634 24.4114 48.3042 24.4114C48.445 24.4114 48.5602 24.5266 48.5602 24.6674C48.5602 24.8081 48.445 24.9233 48.3042 24.9233C48.1634 24.9233 48.0483 24.8081 48.0483 24.6674ZM25.6768 58.3246C24.4184 57.0662 25.2191 55.6299 27.4645 55.1178C28.4981 54.8821 30.2316 55.1765 30.5157 55.6362C30.5978 55.769 30.4977 56.1977 30.2934 56.589C29.67 57.7827 28.5418 58.6698 27.4187 58.8494C26.5011 58.9961 26.2825 58.9303 25.6768 58.3246ZM28.2125 55.6367C28.3019 55.4922 28.0923 55.3808 27.7309 55.3808C27.3789 55.3808 27.0198 55.4959 26.9328 55.6367C26.8434 55.7813 27.0531 55.8927 27.4145 55.8927C27.7664 55.8927 28.1255 55.7775 28.2125 55.6367ZM55.7853 58.02C54.9792 57.3388 54.8286 56.3661 55.4168 55.6397L55.9064 55.0351L56.9043 55.552C58.0721 56.157 58.6018 57.2268 58.017 57.7994C57.3718 58.4312 56.3873 58.5285 55.7853 58.02ZM56.4945 55.8927C56.4945 55.7519 56.3217 55.6367 56.1105 55.6367C55.8994 55.6367 55.7266 55.7519 55.7266 55.8927C55.7266 56.0334 55.8994 56.1486 56.1105 56.1486C56.3217 56.1486 56.4945 56.0334 56.4945 55.8927ZM57.5822 53.9103C56.6473 53.445 56.5748 53.1859 57.1499 52.3649C57.7533 51.5033 58.8827 51.0297 60.3336 51.0297C61.8816 51.0297 63.0798 51.5821 63.4088 52.4474C63.7161 53.2558 63.5298 53.7061 62.739 54.0664C61.7892 54.4991 58.5696 54.4017 57.5822 53.9103ZM60.3336 51.5416C59.8306 51.2165 59.0539 51.2165 59.0539 51.5416C59.0539 51.6824 59.4282 51.7958 59.8857 51.7936C60.517 51.7907 60.625 51.7299 60.3336 51.5416Z" fill="#BE8242"/>
</svg>
