<svg width="80" height="80" viewBox="0 0 80 80" fill="none" xmlns="http://www.w3.org/2000/svg">
<path d="M40 25.7969C56.0687 25.7969 68.425 32.5657 68.425 40C68.425 47.4344 56.0594 54.2032 40 54.2032C23.9313 54.2032 11.575 47.4344 11.575 40C11.575 32.5657 23.9406 25.7969 40 25.7969ZM40 24.2219C23.4344 24.2219 10 31.2813 10 40C10 48.7188 23.4344 55.7782 40 55.7782C56.5656 55.7782 70 48.7188 70 40C70 31.2813 56.5656 24.2219 40 24.2219ZM30.4562 38.7344C29.7156 42.5313 27.1 42.1375 23.8844 42.1375L25.1688 35.5188C28.7313 35.5188 31.15 35.1344 30.4562 38.7344ZM19.1313 48.8407H22.5719L23.3875 44.6407C27.2406 44.6407 29.6312 44.9219 31.8438 42.85C34.2906 40.6 34.9281 36.5969 33.1844 34.5907C32.275 33.5407 30.8125 33.025 28.825 33.025H22.1969L19.1313 48.8407ZM36.5406 28.8157H39.9625L39.1469 33.0157C42.1 33.0157 44.8375 32.8 46.1594 34.0188C47.5469 35.2938 46.8812 36.925 45.3812 44.6219H41.9125C43.3562 37.1782 43.6281 36.5594 43.1031 35.9969C42.5969 35.4532 41.4438 35.5657 38.6594 35.5657L36.8969 44.6219H33.475L36.5406 28.8157ZM57.3438 38.7344C56.5938 42.5875 53.9031 42.1375 50.7719 42.1375L52.0563 35.5188C55.6375 35.5188 58.0375 35.1344 57.3438 38.7344ZM46.0188 48.8407H49.4688L50.2844 44.6407C54.3344 44.6407 56.575 44.875 58.7406 42.85C61.1875 40.6 61.825 36.5969 60.0813 34.5907C59.1719 33.5407 57.7094 33.025 55.7219 33.025H49.0938L46.0188 48.8407Z" fill="#BE8242"/>
</svg>
