<svg width="80" height="80" viewBox="0 0 80 80" fill="none" xmlns="http://www.w3.org/2000/svg">
<path d="M55.8398 32.3022C55.3125 32.1265 54.7852 31.9604 54.2578 31.8042C54.3457 31.4429 54.4238 31.0815 54.502 30.7202C55.7031 24.8999 54.9121 20.2222 52.2461 18.6792C49.6777 17.2046 45.4883 18.7378 41.25 22.4292C40.8301 22.7905 40.4199 23.1714 40.0293 23.5522C39.7656 23.2983 39.4922 23.0444 39.2188 22.8003C34.7754 18.855 30.3223 17.1948 27.6563 18.7476C25.0977 20.2319 24.3359 24.6362 25.4102 30.144C25.5176 30.6909 25.6348 31.228 25.7715 31.7749C25.1465 31.9507 24.5312 32.146 23.9551 32.3511C18.7402 34.1577 15 37.0093 15 39.9585C15 43.0054 18.9844 46.062 24.4043 47.9175C24.8438 48.064 25.2832 48.2104 25.7324 48.3374C25.5859 48.9233 25.459 49.4995 25.3418 50.0952C24.3164 55.5151 25.1172 59.812 27.6758 61.2866C30.3125 62.8101 34.7461 61.2476 39.0625 57.4683C39.4043 57.1655 39.7461 56.853 40.0879 56.521C40.5176 56.9409 40.9668 57.3413 41.416 57.7319C45.5957 61.3257 49.7266 62.7808 52.2754 61.3061C54.9121 59.7827 55.7715 55.1636 54.6582 49.5386C54.5703 49.1089 54.4727 48.6694 54.3652 48.2202C54.6777 48.1323 54.9805 48.0347 55.2832 47.937C60.918 46.0718 65 43.0542 65 39.9585C65 36.9995 61.1523 34.1284 55.8398 32.3022ZM42.627 24.0112C46.2598 20.8472 49.6484 19.6069 51.1914 20.4956C52.8418 21.4429 53.4766 25.271 52.4414 30.3003C52.373 30.6323 52.3047 30.9546 52.2168 31.2769C50.0488 30.7886 47.8516 30.437 45.6445 30.2417C44.375 28.4253 42.9883 26.687 41.4844 25.0562C41.8652 24.6948 42.2363 24.353 42.627 24.0112ZM31.3281 45.0269C31.8262 45.8765 32.334 46.7261 32.8711 47.5561C31.3477 47.3901 29.834 47.146 28.3398 46.8237C28.7695 45.4175 29.3066 43.9624 29.9316 42.478C30.3809 43.3374 30.8398 44.187 31.3281 45.0269ZM28.3691 33.2788C29.7754 32.9663 31.2695 32.7124 32.8223 32.5171C32.3047 33.3276 31.7969 34.1577 31.3184 34.9976C30.8398 35.8276 30.3711 36.6772 29.9316 37.5366C29.3164 36.0815 28.7988 34.6558 28.3691 33.2788ZM31.0449 40.0073C31.6895 38.6597 32.3926 37.3413 33.1348 36.0425C33.877 34.7437 34.6777 33.4839 35.5176 32.2437C36.9824 32.1362 38.4766 32.0776 40 32.0776C41.5234 32.0776 43.0273 32.1362 44.4824 32.2437C45.3125 33.4741 46.1035 34.7339 46.8555 36.0229C47.6074 37.312 48.3105 38.6304 48.9746 39.9683C48.3203 41.3159 47.6172 42.644 46.8652 43.9526C46.123 45.2515 45.332 46.5112 44.502 47.7612C43.0469 47.8686 41.5332 47.9175 40 47.9175C38.4668 47.9175 36.9824 47.8687 35.5469 47.7808C34.6973 46.5405 33.8965 45.271 33.1445 43.9722C32.3926 42.6733 31.6992 41.355 31.0449 40.0073ZM48.6816 45.0073C49.1797 44.1479 49.6484 43.2788 50.1074 42.3999C50.7324 43.8159 51.2793 45.2515 51.7578 46.7261C50.2441 47.0679 48.7109 47.3315 47.168 47.5073C47.6953 46.687 48.1934 45.8472 48.6816 45.0073ZM50.0879 37.5366C49.6289 36.6772 49.1602 35.8179 48.6719 34.978C48.1934 34.1479 47.6953 33.3276 47.1777 32.5171C48.75 32.7124 50.2539 32.9761 51.6602 33.2983C51.2109 34.7436 50.6836 36.1499 50.0879 37.5366ZM40.0195 26.5503C41.0449 27.6636 42.0117 28.8354 42.9102 30.0464C40.9766 29.9585 39.0332 29.9585 37.0996 30.0464C38.0566 28.7866 39.043 27.6147 40.0195 26.5503ZM28.6914 20.564C30.332 19.6069 33.9746 20.9741 37.8125 24.3726C38.0566 24.5874 38.3008 24.8218 38.5547 25.0562C37.041 26.687 35.6445 28.4253 34.3652 30.2417C32.1582 30.437 29.9707 30.7788 27.8027 31.2573C27.6758 30.7593 27.5684 30.2515 27.4609 29.7437C26.543 25.0171 27.1484 21.4526 28.6914 20.564ZM26.2988 46.3062C25.8887 46.189 25.4883 46.062 25.0879 45.9253C23.0078 45.271 20.6445 44.2358 18.9355 42.8784C17.9492 42.1948 17.2852 41.1401 17.0996 39.9585C17.0996 38.1714 20.1855 35.8862 24.6387 34.3335C25.1953 34.1382 25.7617 33.9624 26.3281 33.7964C26.9922 35.9155 27.793 37.9956 28.7207 40.0073C27.7832 42.0483 26.9727 44.1577 26.2988 46.3062ZM37.6855 55.8765C36.0742 57.3511 34.209 58.5229 32.1777 59.3237C31.0938 59.8413 29.8438 59.8901 28.7305 59.4507C27.1777 58.5522 26.5332 55.105 27.4121 50.4663C27.5195 49.9194 27.6367 49.3726 27.7734 48.8354C29.9609 49.3042 32.168 49.6265 34.4043 49.7925C35.6934 51.6186 37.1094 53.3667 38.623 55.0073C38.3105 55.3101 37.998 55.603 37.6855 55.8765ZM40.0781 53.5034C39.082 52.4292 38.0859 51.2378 37.1191 49.9585C38.0566 49.9976 39.0234 50.0171 40 50.0171C41.0059 50.0171 41.9922 49.9976 42.9688 49.9487C42.0703 51.189 41.1035 52.3706 40.0781 53.5034ZM52.8418 56.4331C52.7539 57.6245 52.168 58.7378 51.2305 59.4897C49.6777 60.3882 46.3672 59.2163 42.793 56.1499C42.3828 55.7983 41.9727 55.4175 41.5527 55.0269C43.0469 53.3765 44.4238 51.6284 45.6738 49.7925C47.9102 49.6069 50.1367 49.2651 52.334 48.7671C52.4316 49.1675 52.5195 49.5679 52.5977 49.9585C53.0762 52.0679 53.1543 54.2651 52.8418 56.4331ZM54.6191 45.9351C54.3457 46.0229 54.0723 46.1108 53.7891 46.189C53.1055 44.0601 52.2656 41.98 51.2988 39.9585C52.2363 37.9663 53.0273 35.9155 53.6914 33.8159C54.1992 33.9624 54.6875 34.1186 55.1562 34.2749C59.707 35.8374 62.9004 38.1616 62.9004 39.939C62.9004 41.853 59.4922 44.3237 54.6191 45.9351ZM40 44.4702C42.4707 44.4702 44.4727 42.4683 44.4727 39.9976C44.4727 37.5269 42.4707 35.5249 40 35.5249C37.5293 35.5249 35.5273 37.5269 35.5273 39.9976C35.5273 42.4683 37.5293 44.4702 40 44.4702Z" fill="#BE8242"/>
</svg>
