<svg width="80" height="80" viewBox="0 0 80 80" fill="none" xmlns="http://www.w3.org/2000/svg">
<path d="M20.2574 29.9932C18.771 29.9932 17.4994 30.2174 16.444 30.666C15.3974 31.1145 14.5926 31.7701 14.0297 32.632C13.4756 33.4852 13.1986 34.4036 13.1986 35.3887C13.1986 36.919 13.7922 38.217 14.9796 39.2812C15.8239 40.0376 17.2934 40.6749 19.3866 41.1938C21.0137 41.5984 22.056 41.8795 22.5133 42.0378C23.1817 42.2753 23.6476 42.5574 23.9114 42.8828C24.1841 43.1995 24.3201 43.5861 24.3201 44.0435C24.3201 44.7559 23.9994 45.38 23.3573 45.9165C22.7241 46.4442 21.7783 46.7081 20.5205 46.7081C19.3332 46.7081 18.3884 46.4097 17.6848 45.8116C16.9899 45.2136 16.5282 44.2769 16.2995 43.0016L12.5 43.3706C12.7551 45.5342 13.5375 47.1833 14.848 48.3179C16.1585 49.4437 18.0359 50.0069 20.481 50.0069C22.1608 50.0069 23.5643 49.7735 24.6901 49.3074C25.8159 48.8324 26.6866 48.1109 27.3023 47.1434C27.918 46.176 28.2255 45.1388 28.2255 44.0306C28.2255 42.8081 27.9657 41.7831 27.4467 40.9564C26.9366 40.1208 26.2242 39.4652 25.3095 38.9903C24.4036 38.5066 23.0011 38.0408 21.1014 37.5922C19.2016 37.1436 18.0051 36.7123 17.5126 36.299C17.1256 35.9735 16.9328 35.5828 16.9328 35.1255C16.9328 34.6241 17.1388 34.2233 17.5522 33.9243C18.1942 33.4581 19.0832 33.2257 20.2178 33.2257C21.3172 33.2257 22.1392 33.4449 22.6845 33.8847C23.2386 34.3157 23.5989 35.0281 23.766 36.0219L27.6714 35.8507C27.6098 34.0741 26.9633 32.6534 25.732 31.5892C24.5095 30.5249 22.6848 29.9932 20.2574 29.9932ZM58.0942 29.9932C56.5199 29.9932 55.1296 30.2479 53.9246 30.758C53.0187 31.1362 52.1835 31.7167 51.4183 32.4995C50.662 33.2822 50.0642 34.1662 49.6245 35.1512C49.0352 36.4881 48.7399 38.1422 48.7399 40.1124C48.7399 43.1907 49.5893 45.609 51.2867 47.368C52.9842 49.1183 55.2706 49.9931 58.1467 49.9931C60.9875 49.9931 63.2567 49.1142 64.9541 47.3552C66.6516 45.5873 67.5 43.1416 67.5 40.0193C67.5 36.8707 66.6425 34.4127 64.9274 32.6449C63.2211 30.8771 60.9438 29.9932 58.0942 29.9932ZM31.5105 30.3227V49.6636H46.2207V46.4053H35.4158V41.1414H45.1254V37.8821H35.4158V33.5948H45.8507V30.3227H31.5105ZM58.1338 33.3306C59.7433 33.3306 61.0311 33.8766 61.9986 34.9672C62.9749 36.0578 63.463 37.7109 63.463 39.9273C63.463 42.1701 62.9617 43.8547 61.959 44.9805C60.9652 46.0975 59.6905 46.6556 58.1338 46.6556C56.577 46.6556 55.2923 46.0924 54.2808 44.9666C53.2694 43.832 52.764 42.1697 52.764 39.9798C52.764 37.7546 53.2562 36.0923 54.2413 34.9929C55.2263 33.8847 56.5243 33.3306 58.1338 33.3306Z" fill="#BE8242"/>
</svg>
